%TF.GenerationSoftware,KiCad,Pcbnew,8.0.1*%
%TF.CreationDate,2024-07-18T17:37:03+01:00*%
%TF.ProjectId,patch-antenna-board,70617463-682d-4616-9e74-656e6e612d62,rev?*%
%TF.SameCoordinates,Original*%
%TF.FileFunction,Soldermask,Bot*%
%TF.FilePolarity,Negative*%
%FSLAX46Y46*%
G04 Gerber Fmt 4.6, Leading zero omitted, Abs format (unit mm)*
G04 Created by KiCad (PCBNEW 8.0.1) date 2024-07-18 17:37:03*
%MOMM*%
%LPD*%
G01*
G04 APERTURE LIST*
%ADD10C,0.150000*%
%ADD11C,1.600000*%
%ADD12C,3.600000*%
G04 APERTURE END LIST*
D10*
X69500000Y-135500000D02*
X130500000Y-135500000D01*
X130500000Y-137500000D01*
X69500000Y-137500000D01*
X69500000Y-135500000D01*
G36*
X69500000Y-135500000D02*
G01*
X130500000Y-135500000D01*
X130500000Y-137500000D01*
X69500000Y-137500000D01*
X69500000Y-135500000D01*
G37*
X135500000Y-69500000D02*
X137500000Y-69500000D01*
X137500000Y-130500000D01*
X135500000Y-130500000D01*
X135500000Y-69500000D01*
G36*
X135500000Y-69500000D02*
G01*
X137500000Y-69500000D01*
X137500000Y-130500000D01*
X135500000Y-130500000D01*
X135500000Y-69500000D01*
G37*
X62500000Y-69500000D02*
X64500000Y-69500000D01*
X64500000Y-130500000D01*
X62500000Y-130500000D01*
X62500000Y-69500000D01*
G36*
X62500000Y-69500000D02*
G01*
X64500000Y-69500000D01*
X64500000Y-130500000D01*
X62500000Y-130500000D01*
X62500000Y-69500000D01*
G37*
X130500000Y-68500000D02*
X132000000Y-69500000D01*
X137500000Y-69500000D01*
X137500000Y-72000000D01*
X131500000Y-72000000D01*
X130700000Y-71800000D01*
X130200000Y-71600000D01*
X129600000Y-71200000D01*
X129100000Y-70800000D01*
X128700000Y-70300000D01*
X128500000Y-69900000D01*
X128500000Y-62500000D01*
X130500000Y-62500000D01*
X130500000Y-68500000D01*
G36*
X130500000Y-68500000D02*
G01*
X132000000Y-69500000D01*
X137500000Y-69500000D01*
X137500000Y-72000000D01*
X131500000Y-72000000D01*
X130700000Y-71800000D01*
X130200000Y-71600000D01*
X129600000Y-71200000D01*
X129100000Y-70800000D01*
X128700000Y-70300000D01*
X128500000Y-69900000D01*
X128500000Y-62500000D01*
X130500000Y-62500000D01*
X130500000Y-68500000D01*
G37*
X72000000Y-68500000D02*
X71800000Y-69300000D01*
X71600000Y-69800000D01*
X71200000Y-70400000D01*
X70800000Y-70900000D01*
X70300000Y-71300000D01*
X69900000Y-71500000D01*
X62500000Y-71500000D01*
X62500000Y-69500000D01*
X68500000Y-69500000D01*
X69500000Y-68000000D01*
X69500000Y-62500000D01*
X72000000Y-62500000D01*
X72000000Y-68500000D01*
G36*
X72000000Y-68500000D02*
G01*
X71800000Y-69300000D01*
X71600000Y-69800000D01*
X71200000Y-70400000D01*
X70800000Y-70900000D01*
X70300000Y-71300000D01*
X69900000Y-71500000D01*
X62500000Y-71500000D01*
X62500000Y-69500000D01*
X68500000Y-69500000D01*
X69500000Y-68000000D01*
X69500000Y-62500000D01*
X72000000Y-62500000D01*
X72000000Y-68500000D01*
G37*
X69300000Y-128200000D02*
X69800000Y-128400000D01*
X70400000Y-128800000D01*
X70900000Y-129200000D01*
X71300000Y-129700000D01*
X71500000Y-130100000D01*
X71500000Y-137500000D01*
X69500000Y-137500000D01*
X69500000Y-131500000D01*
X68000000Y-130500000D01*
X62500000Y-130500000D01*
X62500000Y-128000000D01*
X68500000Y-128000000D01*
X69300000Y-128200000D01*
G36*
X69300000Y-128200000D02*
G01*
X69800000Y-128400000D01*
X70400000Y-128800000D01*
X70900000Y-129200000D01*
X71300000Y-129700000D01*
X71500000Y-130100000D01*
X71500000Y-137500000D01*
X69500000Y-137500000D01*
X69500000Y-131500000D01*
X68000000Y-130500000D01*
X62500000Y-130500000D01*
X62500000Y-128000000D01*
X68500000Y-128000000D01*
X69300000Y-128200000D01*
G37*
X69500000Y-62500000D02*
X130500000Y-62500000D01*
X130500000Y-64500000D01*
X69500000Y-64500000D01*
X69500000Y-62500000D01*
G36*
X69500000Y-62500000D02*
G01*
X130500000Y-62500000D01*
X130500000Y-64500000D01*
X69500000Y-64500000D01*
X69500000Y-62500000D01*
G37*
X137500000Y-130500000D02*
X131500000Y-130500000D01*
X130500000Y-132000000D01*
X130500000Y-137500000D01*
X128000000Y-137500000D01*
X128000000Y-131500000D01*
X128200000Y-130700000D01*
X128400000Y-130200000D01*
X128800000Y-129600000D01*
X129200000Y-129100000D01*
X129700000Y-128700000D01*
X130100000Y-128500000D01*
X137500000Y-128500000D01*
X137500000Y-130500000D01*
G36*
X137500000Y-130500000D02*
G01*
X131500000Y-130500000D01*
X130500000Y-132000000D01*
X130500000Y-137500000D01*
X128000000Y-137500000D01*
X128000000Y-131500000D01*
X128200000Y-130700000D01*
X128400000Y-130200000D01*
X128800000Y-129600000D01*
X129200000Y-129100000D01*
X129700000Y-128700000D01*
X130100000Y-128500000D01*
X137500000Y-128500000D01*
X137500000Y-130500000D01*
G37*
D11*
%TO.C,ANT1*%
X97500000Y-100000000D03*
%TD*%
D12*
%TO.C,H1*%
X70000000Y-125000000D03*
%TD*%
%TO.C,H2*%
X70000000Y-75000000D03*
%TD*%
%TO.C,H3*%
X130000000Y-75000000D03*
%TD*%
%TO.C,H4*%
X130000000Y-125000000D03*
%TD*%
M02*
