%TF.GenerationSoftware,KiCad,Pcbnew,8.0.1*%
%TF.CreationDate,2024-07-18T17:37:09+01:00*%
%TF.ProjectId,patch-antenna-board,70617463-682d-4616-9e74-656e6e612d62,rev?*%
%TF.SameCoordinates,Original*%
%TF.FileFunction,Drillmap*%
%TF.FilePolarity,Positive*%
%FSLAX45Y45*%
G04 Gerber Fmt 4.5, Leading zero omitted, Abs format (unit mm)*
G04 Created by KiCad (PCBNEW 8.0.1) date 2024-07-18 17:37:09*
%MOMM*%
%LPD*%
G01*
G04 APERTURE LIST*
%ADD10C,0.050000*%
%ADD11C,0.200000*%
%ADD12C,0.100000*%
%ADD13C,0.120000*%
%ADD14C,0.260000*%
G04 APERTURE END LIST*
D10*
X13007000Y-13207000D02*
G75*
G02*
X13207000Y-13007000I194160J5840D01*
G01*
X6993000Y-6793000D02*
X6993000Y-6298000D01*
X13702000Y-6993000D02*
X13702000Y-13007000D01*
X6993000Y-13702000D02*
X13007000Y-13702000D01*
X6298000Y-6993000D02*
X6793000Y-6993000D01*
X13702000Y-13007000D02*
X13207000Y-13007000D01*
X6298000Y-6993000D02*
X6298000Y-13007000D01*
X6993000Y-13702000D02*
X6993000Y-13207000D01*
X13007000Y-6298000D02*
X13007000Y-6793000D01*
X13207000Y-6993000D02*
X13702000Y-6993000D01*
X13207000Y-6993000D02*
G75*
G02*
X13007000Y-6793000I-5840J194160D01*
G01*
X6793000Y-13007000D02*
X6298000Y-13007000D01*
X6993000Y-6298000D02*
X13007000Y-6298000D01*
X6993000Y-6793000D02*
G75*
G02*
X6793000Y-6993000I-194160J-5840D01*
G01*
X6793000Y-13007000D02*
G75*
G02*
X6993000Y-13207000I5840J-194160D01*
G01*
X13007000Y-13207000D02*
X13007000Y-13702000D01*
D11*
D12*
X6380000Y-7180000D02*
X6420000Y-7220000D01*
X6420000Y-7180000D02*
X6380000Y-7220000D01*
X6380000Y-7480000D02*
X6420000Y-7520000D01*
X6420000Y-7480000D02*
X6380000Y-7520000D01*
X6380000Y-7780000D02*
X6420000Y-7820000D01*
X6420000Y-7780000D02*
X6380000Y-7820000D01*
X6380000Y-8080000D02*
X6420000Y-8120000D01*
X6420000Y-8080000D02*
X6380000Y-8120000D01*
X6380000Y-8380000D02*
X6420000Y-8420000D01*
X6420000Y-8380000D02*
X6380000Y-8420000D01*
X6380000Y-8680000D02*
X6420000Y-8720000D01*
X6420000Y-8680000D02*
X6380000Y-8720000D01*
X6380000Y-8980000D02*
X6420000Y-9020000D01*
X6420000Y-8980000D02*
X6380000Y-9020000D01*
X6380000Y-9280000D02*
X6420000Y-9320000D01*
X6420000Y-9280000D02*
X6380000Y-9320000D01*
X6380000Y-9580000D02*
X6420000Y-9620000D01*
X6420000Y-9580000D02*
X6380000Y-9620000D01*
X6380000Y-9880000D02*
X6420000Y-9920000D01*
X6420000Y-9880000D02*
X6380000Y-9920000D01*
X6380000Y-10180000D02*
X6420000Y-10220000D01*
X6420000Y-10180000D02*
X6380000Y-10220000D01*
X6380000Y-10480000D02*
X6420000Y-10520000D01*
X6420000Y-10480000D02*
X6380000Y-10520000D01*
X6380000Y-10780000D02*
X6420000Y-10820000D01*
X6420000Y-10780000D02*
X6380000Y-10820000D01*
X6380000Y-11080000D02*
X6420000Y-11120000D01*
X6420000Y-11080000D02*
X6380000Y-11120000D01*
X6380000Y-11380000D02*
X6420000Y-11420000D01*
X6420000Y-11380000D02*
X6380000Y-11420000D01*
X6380000Y-11680000D02*
X6420000Y-11720000D01*
X6420000Y-11680000D02*
X6380000Y-11720000D01*
X6380000Y-11980000D02*
X6420000Y-12020000D01*
X6420000Y-11980000D02*
X6380000Y-12020000D01*
X6380000Y-12280000D02*
X6420000Y-12320000D01*
X6420000Y-12280000D02*
X6380000Y-12320000D01*
X6380000Y-12580000D02*
X6420000Y-12620000D01*
X6420000Y-12580000D02*
X6380000Y-12620000D01*
X6380000Y-12880000D02*
X6420000Y-12920000D01*
X6420000Y-12880000D02*
X6380000Y-12920000D01*
X6580000Y-7080000D02*
X6620000Y-7120000D01*
X6620000Y-7080000D02*
X6580000Y-7120000D01*
X6580000Y-7380000D02*
X6620000Y-7420000D01*
X6620000Y-7380000D02*
X6580000Y-7420000D01*
X6580000Y-7780000D02*
X6620000Y-7820000D01*
X6620000Y-7780000D02*
X6580000Y-7820000D01*
X6580000Y-8180000D02*
X6620000Y-8220000D01*
X6620000Y-8180000D02*
X6580000Y-8220000D01*
X6580000Y-8580000D02*
X6620000Y-8620000D01*
X6620000Y-8580000D02*
X6580000Y-8620000D01*
X6580000Y-8980000D02*
X6620000Y-9020000D01*
X6620000Y-8980000D02*
X6580000Y-9020000D01*
X6580000Y-9380000D02*
X6620000Y-9420000D01*
X6620000Y-9380000D02*
X6580000Y-9420000D01*
X6580000Y-9780000D02*
X6620000Y-9820000D01*
X6620000Y-9780000D02*
X6580000Y-9820000D01*
X6580000Y-10180000D02*
X6620000Y-10220000D01*
X6620000Y-10180000D02*
X6580000Y-10220000D01*
X6580000Y-10580000D02*
X6620000Y-10620000D01*
X6620000Y-10580000D02*
X6580000Y-10620000D01*
X6580000Y-10980000D02*
X6620000Y-11020000D01*
X6620000Y-10980000D02*
X6580000Y-11020000D01*
X6580000Y-11380000D02*
X6620000Y-11420000D01*
X6620000Y-11380000D02*
X6580000Y-11420000D01*
X6580000Y-11780000D02*
X6620000Y-11820000D01*
X6620000Y-11780000D02*
X6580000Y-11820000D01*
X6580000Y-12180000D02*
X6620000Y-12220000D01*
X6620000Y-12180000D02*
X6580000Y-12220000D01*
X6580000Y-12580000D02*
X6620000Y-12620000D01*
X6620000Y-12580000D02*
X6580000Y-12620000D01*
X6730000Y-12880000D02*
X6770000Y-12920000D01*
X6770000Y-12880000D02*
X6730000Y-12920000D01*
X6880000Y-7080000D02*
X6920000Y-7120000D01*
X6920000Y-7080000D02*
X6880000Y-7120000D01*
X6980000Y-7980000D02*
X7020000Y-8020000D01*
X7020000Y-7980000D02*
X6980000Y-8020000D01*
X6980000Y-8380000D02*
X7020000Y-8420000D01*
X7020000Y-8380000D02*
X6980000Y-8420000D01*
X6980000Y-8780000D02*
X7020000Y-8820000D01*
X7020000Y-8780000D02*
X6980000Y-8820000D01*
X6980000Y-9180000D02*
X7020000Y-9220000D01*
X7020000Y-9180000D02*
X6980000Y-9220000D01*
X6980000Y-9580000D02*
X7020000Y-9620000D01*
X7020000Y-9580000D02*
X6980000Y-9620000D01*
X6980000Y-9980000D02*
X7020000Y-10020000D01*
X7020000Y-9980000D02*
X6980000Y-10020000D01*
X6980000Y-10380000D02*
X7020000Y-10420000D01*
X7020000Y-10380000D02*
X6980000Y-10420000D01*
X6980000Y-10780000D02*
X7020000Y-10820000D01*
X7020000Y-10780000D02*
X6980000Y-10820000D01*
X6980000Y-11180000D02*
X7020000Y-11220000D01*
X7020000Y-11180000D02*
X6980000Y-11220000D01*
X6980000Y-11580000D02*
X7020000Y-11620000D01*
X7020000Y-11580000D02*
X6980000Y-11620000D01*
X6980000Y-11980000D02*
X7020000Y-12020000D01*
X7020000Y-11980000D02*
X6980000Y-12020000D01*
X7055000Y-6930000D02*
X7095000Y-6970000D01*
X7095000Y-6930000D02*
X7055000Y-6970000D01*
X7080000Y-6655000D02*
X7120000Y-6695000D01*
X7120000Y-6655000D02*
X7080000Y-6695000D01*
X7080000Y-13030000D02*
X7120000Y-13070000D01*
X7120000Y-13030000D02*
X7080000Y-13070000D01*
X7080000Y-13330000D02*
X7120000Y-13370000D01*
X7120000Y-13330000D02*
X7080000Y-13370000D01*
X7180000Y-6380000D02*
X7220000Y-6420000D01*
X7220000Y-6380000D02*
X7180000Y-6420000D01*
X7180000Y-13580000D02*
X7220000Y-13620000D01*
X7220000Y-13580000D02*
X7180000Y-13620000D01*
X7380000Y-6980000D02*
X7420000Y-7020000D01*
X7420000Y-6980000D02*
X7380000Y-7020000D01*
X7380000Y-7380000D02*
X7420000Y-7420000D01*
X7420000Y-7380000D02*
X7380000Y-7420000D01*
X7380000Y-7780000D02*
X7420000Y-7820000D01*
X7420000Y-7780000D02*
X7380000Y-7820000D01*
X7380000Y-8180000D02*
X7420000Y-8220000D01*
X7420000Y-8180000D02*
X7380000Y-8220000D01*
X7380000Y-8580000D02*
X7420000Y-8620000D01*
X7420000Y-8580000D02*
X7380000Y-8620000D01*
X7380000Y-8980000D02*
X7420000Y-9020000D01*
X7420000Y-8980000D02*
X7380000Y-9020000D01*
X7380000Y-9380000D02*
X7420000Y-9420000D01*
X7420000Y-9380000D02*
X7380000Y-9420000D01*
X7380000Y-9780000D02*
X7420000Y-9820000D01*
X7420000Y-9780000D02*
X7380000Y-9820000D01*
X7380000Y-10180000D02*
X7420000Y-10220000D01*
X7420000Y-10180000D02*
X7380000Y-10220000D01*
X7380000Y-10580000D02*
X7420000Y-10620000D01*
X7420000Y-10580000D02*
X7380000Y-10620000D01*
X7380000Y-10980000D02*
X7420000Y-11020000D01*
X7420000Y-10980000D02*
X7380000Y-11020000D01*
X7380000Y-11380000D02*
X7420000Y-11420000D01*
X7420000Y-11380000D02*
X7380000Y-11420000D01*
X7380000Y-11780000D02*
X7420000Y-11820000D01*
X7420000Y-11780000D02*
X7380000Y-11820000D01*
X7380000Y-12180000D02*
X7420000Y-12220000D01*
X7420000Y-12180000D02*
X7380000Y-12220000D01*
X7380000Y-12580000D02*
X7420000Y-12620000D01*
X7420000Y-12580000D02*
X7380000Y-12620000D01*
X7380000Y-12980000D02*
X7420000Y-13020000D01*
X7420000Y-12980000D02*
X7380000Y-13020000D01*
X7380000Y-13380000D02*
X7420000Y-13420000D01*
X7420000Y-13380000D02*
X7380000Y-13420000D01*
X7480000Y-6380000D02*
X7520000Y-6420000D01*
X7520000Y-6380000D02*
X7480000Y-6420000D01*
X7480000Y-13580000D02*
X7520000Y-13620000D01*
X7520000Y-13580000D02*
X7480000Y-13620000D01*
X7780000Y-6380000D02*
X7820000Y-6420000D01*
X7820000Y-6380000D02*
X7780000Y-6420000D01*
X7780000Y-6780000D02*
X7820000Y-6820000D01*
X7820000Y-6780000D02*
X7780000Y-6820000D01*
X7780000Y-7180000D02*
X7820000Y-7220000D01*
X7820000Y-7180000D02*
X7780000Y-7220000D01*
X7780000Y-7580000D02*
X7820000Y-7620000D01*
X7820000Y-7580000D02*
X7780000Y-7620000D01*
X7780000Y-7980000D02*
X7820000Y-8020000D01*
X7820000Y-7980000D02*
X7780000Y-8020000D01*
X7780000Y-8380000D02*
X7820000Y-8420000D01*
X7820000Y-8380000D02*
X7780000Y-8420000D01*
X7780000Y-8780000D02*
X7820000Y-8820000D01*
X7820000Y-8780000D02*
X7780000Y-8820000D01*
X7780000Y-9180000D02*
X7820000Y-9220000D01*
X7820000Y-9180000D02*
X7780000Y-9220000D01*
X7780000Y-9580000D02*
X7820000Y-9620000D01*
X7820000Y-9580000D02*
X7780000Y-9620000D01*
X7780000Y-9980000D02*
X7820000Y-10020000D01*
X7820000Y-9980000D02*
X7780000Y-10020000D01*
X7780000Y-10380000D02*
X7820000Y-10420000D01*
X7820000Y-10380000D02*
X7780000Y-10420000D01*
X7780000Y-10780000D02*
X7820000Y-10820000D01*
X7820000Y-10780000D02*
X7780000Y-10820000D01*
X7780000Y-11180000D02*
X7820000Y-11220000D01*
X7820000Y-11180000D02*
X7780000Y-11220000D01*
X7780000Y-11580000D02*
X7820000Y-11620000D01*
X7820000Y-11580000D02*
X7780000Y-11620000D01*
X7780000Y-11980000D02*
X7820000Y-12020000D01*
X7820000Y-11980000D02*
X7780000Y-12020000D01*
X7780000Y-12380000D02*
X7820000Y-12420000D01*
X7820000Y-12380000D02*
X7780000Y-12420000D01*
X7780000Y-12780000D02*
X7820000Y-12820000D01*
X7820000Y-12780000D02*
X7780000Y-12820000D01*
X7780000Y-13180000D02*
X7820000Y-13220000D01*
X7820000Y-13180000D02*
X7780000Y-13220000D01*
X7780000Y-13580000D02*
X7820000Y-13620000D01*
X7820000Y-13580000D02*
X7780000Y-13620000D01*
X8080000Y-6380000D02*
X8120000Y-6420000D01*
X8120000Y-6380000D02*
X8080000Y-6420000D01*
X8080000Y-13580000D02*
X8120000Y-13620000D01*
X8120000Y-13580000D02*
X8080000Y-13620000D01*
X8180000Y-6580000D02*
X8220000Y-6620000D01*
X8220000Y-6580000D02*
X8180000Y-6620000D01*
X8180000Y-6980000D02*
X8220000Y-7020000D01*
X8220000Y-6980000D02*
X8180000Y-7020000D01*
X8180000Y-7380000D02*
X8220000Y-7420000D01*
X8220000Y-7380000D02*
X8180000Y-7420000D01*
X8180000Y-7780000D02*
X8220000Y-7820000D01*
X8220000Y-7780000D02*
X8180000Y-7820000D01*
X8180000Y-8180000D02*
X8220000Y-8220000D01*
X8220000Y-8180000D02*
X8180000Y-8220000D01*
X8180000Y-8580000D02*
X8220000Y-8620000D01*
X8220000Y-8580000D02*
X8180000Y-8620000D01*
X8180000Y-8980000D02*
X8220000Y-9020000D01*
X8220000Y-8980000D02*
X8180000Y-9020000D01*
X8180000Y-9380000D02*
X8220000Y-9420000D01*
X8220000Y-9380000D02*
X8180000Y-9420000D01*
X8180000Y-9780000D02*
X8220000Y-9820000D01*
X8220000Y-9780000D02*
X8180000Y-9820000D01*
X8180000Y-10180000D02*
X8220000Y-10220000D01*
X8220000Y-10180000D02*
X8180000Y-10220000D01*
X8180000Y-10580000D02*
X8220000Y-10620000D01*
X8220000Y-10580000D02*
X8180000Y-10620000D01*
X8180000Y-10980000D02*
X8220000Y-11020000D01*
X8220000Y-10980000D02*
X8180000Y-11020000D01*
X8180000Y-11380000D02*
X8220000Y-11420000D01*
X8220000Y-11380000D02*
X8180000Y-11420000D01*
X8180000Y-11780000D02*
X8220000Y-11820000D01*
X8220000Y-11780000D02*
X8180000Y-11820000D01*
X8180000Y-12180000D02*
X8220000Y-12220000D01*
X8220000Y-12180000D02*
X8180000Y-12220000D01*
X8180000Y-12580000D02*
X8220000Y-12620000D01*
X8220000Y-12580000D02*
X8180000Y-12620000D01*
X8180000Y-12980000D02*
X8220000Y-13020000D01*
X8220000Y-12980000D02*
X8180000Y-13020000D01*
X8180000Y-13380000D02*
X8220000Y-13420000D01*
X8220000Y-13380000D02*
X8180000Y-13420000D01*
X8380000Y-6380000D02*
X8420000Y-6420000D01*
X8420000Y-6380000D02*
X8380000Y-6420000D01*
X8380000Y-13580000D02*
X8420000Y-13620000D01*
X8420000Y-13580000D02*
X8380000Y-13620000D01*
X8580000Y-6780000D02*
X8620000Y-6820000D01*
X8620000Y-6780000D02*
X8580000Y-6820000D01*
X8580000Y-7180000D02*
X8620000Y-7220000D01*
X8620000Y-7180000D02*
X8580000Y-7220000D01*
X8580000Y-7580000D02*
X8620000Y-7620000D01*
X8620000Y-7580000D02*
X8580000Y-7620000D01*
X8580000Y-7980000D02*
X8620000Y-8020000D01*
X8620000Y-7980000D02*
X8580000Y-8020000D01*
X8580000Y-8380000D02*
X8620000Y-8420000D01*
X8620000Y-8380000D02*
X8580000Y-8420000D01*
X8580000Y-8780000D02*
X8620000Y-8820000D01*
X8620000Y-8780000D02*
X8580000Y-8820000D01*
X8580000Y-9180000D02*
X8620000Y-9220000D01*
X8620000Y-9180000D02*
X8580000Y-9220000D01*
X8580000Y-9580000D02*
X8620000Y-9620000D01*
X8620000Y-9580000D02*
X8580000Y-9620000D01*
X8580000Y-9980000D02*
X8620000Y-10020000D01*
X8620000Y-9980000D02*
X8580000Y-10020000D01*
X8580000Y-10380000D02*
X8620000Y-10420000D01*
X8620000Y-10380000D02*
X8580000Y-10420000D01*
X8580000Y-10780000D02*
X8620000Y-10820000D01*
X8620000Y-10780000D02*
X8580000Y-10820000D01*
X8580000Y-11180000D02*
X8620000Y-11220000D01*
X8620000Y-11180000D02*
X8580000Y-11220000D01*
X8580000Y-11580000D02*
X8620000Y-11620000D01*
X8620000Y-11580000D02*
X8580000Y-11620000D01*
X8580000Y-11980000D02*
X8620000Y-12020000D01*
X8620000Y-11980000D02*
X8580000Y-12020000D01*
X8580000Y-12380000D02*
X8620000Y-12420000D01*
X8620000Y-12380000D02*
X8580000Y-12420000D01*
X8580000Y-12780000D02*
X8620000Y-12820000D01*
X8620000Y-12780000D02*
X8580000Y-12820000D01*
X8580000Y-13180000D02*
X8620000Y-13220000D01*
X8620000Y-13180000D02*
X8580000Y-13220000D01*
X8680000Y-6380000D02*
X8720000Y-6420000D01*
X8720000Y-6380000D02*
X8680000Y-6420000D01*
X8680000Y-13580000D02*
X8720000Y-13620000D01*
X8720000Y-13580000D02*
X8680000Y-13620000D01*
X8980000Y-6380000D02*
X9020000Y-6420000D01*
X9020000Y-6380000D02*
X8980000Y-6420000D01*
X8980000Y-6580000D02*
X9020000Y-6620000D01*
X9020000Y-6580000D02*
X8980000Y-6620000D01*
X8980000Y-6980000D02*
X9020000Y-7020000D01*
X9020000Y-6980000D02*
X8980000Y-7020000D01*
X8980000Y-7380000D02*
X9020000Y-7420000D01*
X9020000Y-7380000D02*
X8980000Y-7420000D01*
X8980000Y-7780000D02*
X9020000Y-7820000D01*
X9020000Y-7780000D02*
X8980000Y-7820000D01*
X8980000Y-8180000D02*
X9020000Y-8220000D01*
X9020000Y-8180000D02*
X8980000Y-8220000D01*
X8980000Y-8580000D02*
X9020000Y-8620000D01*
X9020000Y-8580000D02*
X8980000Y-8620000D01*
X8980000Y-8980000D02*
X9020000Y-9020000D01*
X9020000Y-8980000D02*
X8980000Y-9020000D01*
X8980000Y-9380000D02*
X9020000Y-9420000D01*
X9020000Y-9380000D02*
X8980000Y-9420000D01*
X8980000Y-9780000D02*
X9020000Y-9820000D01*
X9020000Y-9780000D02*
X8980000Y-9820000D01*
X8980000Y-10180000D02*
X9020000Y-10220000D01*
X9020000Y-10180000D02*
X8980000Y-10220000D01*
X8980000Y-10580000D02*
X9020000Y-10620000D01*
X9020000Y-10580000D02*
X8980000Y-10620000D01*
X8980000Y-10980000D02*
X9020000Y-11020000D01*
X9020000Y-10980000D02*
X8980000Y-11020000D01*
X8980000Y-11380000D02*
X9020000Y-11420000D01*
X9020000Y-11380000D02*
X8980000Y-11420000D01*
X8980000Y-11780000D02*
X9020000Y-11820000D01*
X9020000Y-11780000D02*
X8980000Y-11820000D01*
X8980000Y-12180000D02*
X9020000Y-12220000D01*
X9020000Y-12180000D02*
X8980000Y-12220000D01*
X8980000Y-12580000D02*
X9020000Y-12620000D01*
X9020000Y-12580000D02*
X8980000Y-12620000D01*
X8980000Y-12980000D02*
X9020000Y-13020000D01*
X9020000Y-12980000D02*
X8980000Y-13020000D01*
X8980000Y-13380000D02*
X9020000Y-13420000D01*
X9020000Y-13380000D02*
X8980000Y-13420000D01*
X8980000Y-13580000D02*
X9020000Y-13620000D01*
X9020000Y-13580000D02*
X8980000Y-13620000D01*
X9280000Y-6380000D02*
X9320000Y-6420000D01*
X9320000Y-6380000D02*
X9280000Y-6420000D01*
X9280000Y-13580000D02*
X9320000Y-13620000D01*
X9320000Y-13580000D02*
X9280000Y-13620000D01*
X9380000Y-6780000D02*
X9420000Y-6820000D01*
X9420000Y-6780000D02*
X9380000Y-6820000D01*
X9380000Y-7180000D02*
X9420000Y-7220000D01*
X9420000Y-7180000D02*
X9380000Y-7220000D01*
X9380000Y-7580000D02*
X9420000Y-7620000D01*
X9420000Y-7580000D02*
X9380000Y-7620000D01*
X9380000Y-7980000D02*
X9420000Y-8020000D01*
X9420000Y-7980000D02*
X9380000Y-8020000D01*
X9380000Y-8380000D02*
X9420000Y-8420000D01*
X9420000Y-8380000D02*
X9380000Y-8420000D01*
X9380000Y-8780000D02*
X9420000Y-8820000D01*
X9420000Y-8780000D02*
X9380000Y-8820000D01*
X9380000Y-9180000D02*
X9420000Y-9220000D01*
X9420000Y-9180000D02*
X9380000Y-9220000D01*
X9380000Y-9580000D02*
X9420000Y-9620000D01*
X9420000Y-9580000D02*
X9380000Y-9620000D01*
X9380000Y-10380000D02*
X9420000Y-10420000D01*
X9420000Y-10380000D02*
X9380000Y-10420000D01*
X9380000Y-10780000D02*
X9420000Y-10820000D01*
X9420000Y-10780000D02*
X9380000Y-10820000D01*
X9380000Y-11180000D02*
X9420000Y-11220000D01*
X9420000Y-11180000D02*
X9380000Y-11220000D01*
X9380000Y-11580000D02*
X9420000Y-11620000D01*
X9420000Y-11580000D02*
X9380000Y-11620000D01*
X9380000Y-11980000D02*
X9420000Y-12020000D01*
X9420000Y-11980000D02*
X9380000Y-12020000D01*
X9380000Y-12380000D02*
X9420000Y-12420000D01*
X9420000Y-12380000D02*
X9380000Y-12420000D01*
X9380000Y-12780000D02*
X9420000Y-12820000D01*
X9420000Y-12780000D02*
X9380000Y-12820000D01*
X9380000Y-13180000D02*
X9420000Y-13220000D01*
X9420000Y-13180000D02*
X9380000Y-13220000D01*
X9430000Y-9980000D02*
X9470000Y-10020000D01*
X9470000Y-9980000D02*
X9430000Y-10020000D01*
X9505000Y-9780000D02*
X9545000Y-9820000D01*
X9545000Y-9780000D02*
X9505000Y-9820000D01*
X9505000Y-10180000D02*
X9545000Y-10220000D01*
X9545000Y-10180000D02*
X9505000Y-10220000D01*
X9580000Y-6380000D02*
X9620000Y-6420000D01*
X9620000Y-6380000D02*
X9580000Y-6420000D01*
X9580000Y-13580000D02*
X9620000Y-13620000D01*
X9620000Y-13580000D02*
X9580000Y-13620000D01*
X9700000Y-10280000D02*
X9740000Y-10320000D01*
X9740000Y-10280000D02*
X9700000Y-10320000D01*
X9710000Y-9680000D02*
X9750000Y-9720000D01*
X9750000Y-9680000D02*
X9710000Y-9720000D01*
X9780000Y-6580000D02*
X9820000Y-6620000D01*
X9820000Y-6580000D02*
X9780000Y-6620000D01*
X9780000Y-6980000D02*
X9820000Y-7020000D01*
X9820000Y-6980000D02*
X9780000Y-7020000D01*
X9780000Y-7380000D02*
X9820000Y-7420000D01*
X9820000Y-7380000D02*
X9780000Y-7420000D01*
X9780000Y-7780000D02*
X9820000Y-7820000D01*
X9820000Y-7780000D02*
X9780000Y-7820000D01*
X9780000Y-8180000D02*
X9820000Y-8220000D01*
X9820000Y-8180000D02*
X9780000Y-8220000D01*
X9780000Y-8580000D02*
X9820000Y-8620000D01*
X9820000Y-8580000D02*
X9780000Y-8620000D01*
X9780000Y-8980000D02*
X9820000Y-9020000D01*
X9820000Y-8980000D02*
X9780000Y-9020000D01*
X9780000Y-9380000D02*
X9820000Y-9420000D01*
X9820000Y-9380000D02*
X9780000Y-9420000D01*
X9780000Y-10580000D02*
X9820000Y-10620000D01*
X9820000Y-10580000D02*
X9780000Y-10620000D01*
X9780000Y-10980000D02*
X9820000Y-11020000D01*
X9820000Y-10980000D02*
X9780000Y-11020000D01*
X9780000Y-11380000D02*
X9820000Y-11420000D01*
X9820000Y-11380000D02*
X9780000Y-11420000D01*
X9780000Y-11780000D02*
X9820000Y-11820000D01*
X9820000Y-11780000D02*
X9780000Y-11820000D01*
X9780000Y-12180000D02*
X9820000Y-12220000D01*
X9820000Y-12180000D02*
X9780000Y-12220000D01*
X9780000Y-12580000D02*
X9820000Y-12620000D01*
X9820000Y-12580000D02*
X9780000Y-12620000D01*
X9780000Y-12980000D02*
X9820000Y-13020000D01*
X9820000Y-12980000D02*
X9780000Y-13020000D01*
X9780000Y-13380000D02*
X9820000Y-13420000D01*
X9820000Y-13380000D02*
X9780000Y-13420000D01*
X9850000Y-10330000D02*
X9890000Y-10370000D01*
X9890000Y-10330000D02*
X9850000Y-10370000D01*
X9860000Y-9650000D02*
X9900000Y-9690000D01*
X9900000Y-9650000D02*
X9860000Y-9690000D01*
X9880000Y-6380000D02*
X9920000Y-6420000D01*
X9920000Y-6380000D02*
X9880000Y-6420000D01*
X9880000Y-13580000D02*
X9920000Y-13620000D01*
X9920000Y-13580000D02*
X9880000Y-13620000D01*
X9990000Y-10340000D02*
X10030000Y-10380000D01*
X10030000Y-10340000D02*
X9990000Y-10380000D01*
X10005000Y-9650000D02*
X10045000Y-9690000D01*
X10045000Y-9650000D02*
X10005000Y-9690000D01*
X10160000Y-10330000D02*
X10200000Y-10370000D01*
X10200000Y-10330000D02*
X10160000Y-10370000D01*
X10180000Y-6380000D02*
X10220000Y-6420000D01*
X10220000Y-6380000D02*
X10180000Y-6420000D01*
X10180000Y-6780000D02*
X10220000Y-6820000D01*
X10220000Y-6780000D02*
X10180000Y-6820000D01*
X10180000Y-7180000D02*
X10220000Y-7220000D01*
X10220000Y-7180000D02*
X10180000Y-7220000D01*
X10180000Y-7580000D02*
X10220000Y-7620000D01*
X10220000Y-7580000D02*
X10180000Y-7620000D01*
X10180000Y-7980000D02*
X10220000Y-8020000D01*
X10220000Y-7980000D02*
X10180000Y-8020000D01*
X10180000Y-8380000D02*
X10220000Y-8420000D01*
X10220000Y-8380000D02*
X10180000Y-8420000D01*
X10180000Y-8780000D02*
X10220000Y-8820000D01*
X10220000Y-8780000D02*
X10180000Y-8820000D01*
X10180000Y-9180000D02*
X10220000Y-9220000D01*
X10220000Y-9180000D02*
X10180000Y-9220000D01*
X10180000Y-9630000D02*
X10220000Y-9670000D01*
X10220000Y-9630000D02*
X10180000Y-9670000D01*
X10180000Y-10780000D02*
X10220000Y-10820000D01*
X10220000Y-10780000D02*
X10180000Y-10820000D01*
X10180000Y-11180000D02*
X10220000Y-11220000D01*
X10220000Y-11180000D02*
X10180000Y-11220000D01*
X10180000Y-11580000D02*
X10220000Y-11620000D01*
X10220000Y-11580000D02*
X10180000Y-11620000D01*
X10180000Y-11980000D02*
X10220000Y-12020000D01*
X10220000Y-11980000D02*
X10180000Y-12020000D01*
X10180000Y-12380000D02*
X10220000Y-12420000D01*
X10220000Y-12380000D02*
X10180000Y-12420000D01*
X10180000Y-12780000D02*
X10220000Y-12820000D01*
X10220000Y-12780000D02*
X10180000Y-12820000D01*
X10180000Y-13180000D02*
X10220000Y-13220000D01*
X10220000Y-13180000D02*
X10180000Y-13220000D01*
X10180000Y-13580000D02*
X10220000Y-13620000D01*
X10220000Y-13580000D02*
X10180000Y-13620000D01*
X10355000Y-10380000D02*
X10395000Y-10420000D01*
X10395000Y-10380000D02*
X10355000Y-10420000D01*
X10380000Y-9580000D02*
X10420000Y-9620000D01*
X10420000Y-9580000D02*
X10380000Y-9620000D01*
X10480000Y-6380000D02*
X10520000Y-6420000D01*
X10520000Y-6380000D02*
X10480000Y-6420000D01*
X10480000Y-13580000D02*
X10520000Y-13620000D01*
X10520000Y-13580000D02*
X10480000Y-13620000D01*
X10530000Y-9680000D02*
X10570000Y-9720000D01*
X10570000Y-9680000D02*
X10530000Y-9720000D01*
X10530000Y-10280000D02*
X10570000Y-10320000D01*
X10570000Y-10280000D02*
X10530000Y-10320000D01*
X10580000Y-6580000D02*
X10620000Y-6620000D01*
X10620000Y-6580000D02*
X10580000Y-6620000D01*
X10580000Y-6980000D02*
X10620000Y-7020000D01*
X10620000Y-6980000D02*
X10580000Y-7020000D01*
X10580000Y-7380000D02*
X10620000Y-7420000D01*
X10620000Y-7380000D02*
X10580000Y-7420000D01*
X10580000Y-7780000D02*
X10620000Y-7820000D01*
X10620000Y-7780000D02*
X10580000Y-7820000D01*
X10580000Y-8180000D02*
X10620000Y-8220000D01*
X10620000Y-8180000D02*
X10580000Y-8220000D01*
X10580000Y-8580000D02*
X10620000Y-8620000D01*
X10620000Y-8580000D02*
X10580000Y-8620000D01*
X10580000Y-8980000D02*
X10620000Y-9020000D01*
X10620000Y-8980000D02*
X10580000Y-9020000D01*
X10580000Y-9380000D02*
X10620000Y-9420000D01*
X10620000Y-9380000D02*
X10580000Y-9420000D01*
X10580000Y-10580000D02*
X10620000Y-10620000D01*
X10620000Y-10580000D02*
X10580000Y-10620000D01*
X10580000Y-10980000D02*
X10620000Y-11020000D01*
X10620000Y-10980000D02*
X10580000Y-11020000D01*
X10580000Y-11380000D02*
X10620000Y-11420000D01*
X10620000Y-11380000D02*
X10580000Y-11420000D01*
X10580000Y-11780000D02*
X10620000Y-11820000D01*
X10620000Y-11780000D02*
X10580000Y-11820000D01*
X10580000Y-12180000D02*
X10620000Y-12220000D01*
X10620000Y-12180000D02*
X10580000Y-12220000D01*
X10580000Y-12580000D02*
X10620000Y-12620000D01*
X10620000Y-12580000D02*
X10580000Y-12620000D01*
X10580000Y-12980000D02*
X10620000Y-13020000D01*
X10620000Y-12980000D02*
X10580000Y-13020000D01*
X10580000Y-13380000D02*
X10620000Y-13420000D01*
X10620000Y-13380000D02*
X10580000Y-13420000D01*
X10730000Y-9680000D02*
X10770000Y-9720000D01*
X10770000Y-9680000D02*
X10730000Y-9720000D01*
X10730000Y-10280000D02*
X10770000Y-10320000D01*
X10770000Y-10280000D02*
X10730000Y-10320000D01*
X10780000Y-6380000D02*
X10820000Y-6420000D01*
X10820000Y-6380000D02*
X10780000Y-6420000D01*
X10780000Y-13580000D02*
X10820000Y-13620000D01*
X10820000Y-13580000D02*
X10780000Y-13620000D01*
X10930000Y-9680000D02*
X10970000Y-9720000D01*
X10970000Y-9680000D02*
X10930000Y-9720000D01*
X10930000Y-10280000D02*
X10970000Y-10320000D01*
X10970000Y-10280000D02*
X10930000Y-10320000D01*
X10980000Y-6780000D02*
X11020000Y-6820000D01*
X11020000Y-6780000D02*
X10980000Y-6820000D01*
X10980000Y-7180000D02*
X11020000Y-7220000D01*
X11020000Y-7180000D02*
X10980000Y-7220000D01*
X10980000Y-7580000D02*
X11020000Y-7620000D01*
X11020000Y-7580000D02*
X10980000Y-7620000D01*
X10980000Y-7980000D02*
X11020000Y-8020000D01*
X11020000Y-7980000D02*
X10980000Y-8020000D01*
X10980000Y-8380000D02*
X11020000Y-8420000D01*
X11020000Y-8380000D02*
X10980000Y-8420000D01*
X10980000Y-8780000D02*
X11020000Y-8820000D01*
X11020000Y-8780000D02*
X10980000Y-8820000D01*
X10980000Y-9180000D02*
X11020000Y-9220000D01*
X11020000Y-9180000D02*
X10980000Y-9220000D01*
X10980000Y-9480000D02*
X11020000Y-9520000D01*
X11020000Y-9480000D02*
X10980000Y-9520000D01*
X10980000Y-10480000D02*
X11020000Y-10520000D01*
X11020000Y-10480000D02*
X10980000Y-10520000D01*
X10980000Y-10780000D02*
X11020000Y-10820000D01*
X11020000Y-10780000D02*
X10980000Y-10820000D01*
X10980000Y-11180000D02*
X11020000Y-11220000D01*
X11020000Y-11180000D02*
X10980000Y-11220000D01*
X10980000Y-11580000D02*
X11020000Y-11620000D01*
X11020000Y-11580000D02*
X10980000Y-11620000D01*
X10980000Y-11980000D02*
X11020000Y-12020000D01*
X11020000Y-11980000D02*
X10980000Y-12020000D01*
X10980000Y-12380000D02*
X11020000Y-12420000D01*
X11020000Y-12380000D02*
X10980000Y-12420000D01*
X10980000Y-12780000D02*
X11020000Y-12820000D01*
X11020000Y-12780000D02*
X10980000Y-12820000D01*
X10980000Y-13180000D02*
X11020000Y-13220000D01*
X11020000Y-13180000D02*
X10980000Y-13220000D01*
X11080000Y-6380000D02*
X11120000Y-6420000D01*
X11120000Y-6380000D02*
X11080000Y-6420000D01*
X11080000Y-13580000D02*
X11120000Y-13620000D01*
X11120000Y-13580000D02*
X11080000Y-13620000D01*
X11105000Y-9680000D02*
X11145000Y-9720000D01*
X11145000Y-9680000D02*
X11105000Y-9720000D01*
X11130000Y-10280000D02*
X11170000Y-10320000D01*
X11170000Y-10280000D02*
X11130000Y-10320000D01*
X11330000Y-9680000D02*
X11370000Y-9720000D01*
X11370000Y-9680000D02*
X11330000Y-9720000D01*
X11330000Y-10280000D02*
X11370000Y-10320000D01*
X11370000Y-10280000D02*
X11330000Y-10320000D01*
X11380000Y-6380000D02*
X11420000Y-6420000D01*
X11420000Y-6380000D02*
X11380000Y-6420000D01*
X11380000Y-6580000D02*
X11420000Y-6620000D01*
X11420000Y-6580000D02*
X11380000Y-6620000D01*
X11380000Y-6980000D02*
X11420000Y-7020000D01*
X11420000Y-6980000D02*
X11380000Y-7020000D01*
X11380000Y-7380000D02*
X11420000Y-7420000D01*
X11420000Y-7380000D02*
X11380000Y-7420000D01*
X11380000Y-7780000D02*
X11420000Y-7820000D01*
X11420000Y-7780000D02*
X11380000Y-7820000D01*
X11380000Y-8180000D02*
X11420000Y-8220000D01*
X11420000Y-8180000D02*
X11380000Y-8220000D01*
X11380000Y-8580000D02*
X11420000Y-8620000D01*
X11420000Y-8580000D02*
X11380000Y-8620000D01*
X11380000Y-8980000D02*
X11420000Y-9020000D01*
X11420000Y-8980000D02*
X11380000Y-9020000D01*
X11380000Y-9380000D02*
X11420000Y-9420000D01*
X11420000Y-9380000D02*
X11380000Y-9420000D01*
X11380000Y-10580000D02*
X11420000Y-10620000D01*
X11420000Y-10580000D02*
X11380000Y-10620000D01*
X11380000Y-10980000D02*
X11420000Y-11020000D01*
X11420000Y-10980000D02*
X11380000Y-11020000D01*
X11380000Y-11380000D02*
X11420000Y-11420000D01*
X11420000Y-11380000D02*
X11380000Y-11420000D01*
X11380000Y-11780000D02*
X11420000Y-11820000D01*
X11420000Y-11780000D02*
X11380000Y-11820000D01*
X11380000Y-12180000D02*
X11420000Y-12220000D01*
X11420000Y-12180000D02*
X11380000Y-12220000D01*
X11380000Y-12580000D02*
X11420000Y-12620000D01*
X11420000Y-12580000D02*
X11380000Y-12620000D01*
X11380000Y-12980000D02*
X11420000Y-13020000D01*
X11420000Y-12980000D02*
X11380000Y-13020000D01*
X11380000Y-13380000D02*
X11420000Y-13420000D01*
X11420000Y-13380000D02*
X11380000Y-13420000D01*
X11380000Y-13580000D02*
X11420000Y-13620000D01*
X11420000Y-13580000D02*
X11380000Y-13620000D01*
X11530000Y-9680000D02*
X11570000Y-9720000D01*
X11570000Y-9680000D02*
X11530000Y-9720000D01*
X11530000Y-10280000D02*
X11570000Y-10320000D01*
X11570000Y-10280000D02*
X11530000Y-10320000D01*
X11680000Y-6380000D02*
X11720000Y-6420000D01*
X11720000Y-6380000D02*
X11680000Y-6420000D01*
X11680000Y-13580000D02*
X11720000Y-13620000D01*
X11720000Y-13580000D02*
X11680000Y-13620000D01*
X11730000Y-9680000D02*
X11770000Y-9720000D01*
X11770000Y-9680000D02*
X11730000Y-9720000D01*
X11730000Y-10280000D02*
X11770000Y-10320000D01*
X11770000Y-10280000D02*
X11730000Y-10320000D01*
X11780000Y-6780000D02*
X11820000Y-6820000D01*
X11820000Y-6780000D02*
X11780000Y-6820000D01*
X11780000Y-7180000D02*
X11820000Y-7220000D01*
X11820000Y-7180000D02*
X11780000Y-7220000D01*
X11780000Y-7580000D02*
X11820000Y-7620000D01*
X11820000Y-7580000D02*
X11780000Y-7620000D01*
X11780000Y-7980000D02*
X11820000Y-8020000D01*
X11820000Y-7980000D02*
X11780000Y-8020000D01*
X11780000Y-8380000D02*
X11820000Y-8420000D01*
X11820000Y-8380000D02*
X11780000Y-8420000D01*
X11780000Y-8780000D02*
X11820000Y-8820000D01*
X11820000Y-8780000D02*
X11780000Y-8820000D01*
X11780000Y-9180000D02*
X11820000Y-9220000D01*
X11820000Y-9180000D02*
X11780000Y-9220000D01*
X11780000Y-9480000D02*
X11820000Y-9520000D01*
X11820000Y-9480000D02*
X11780000Y-9520000D01*
X11780000Y-10480000D02*
X11820000Y-10520000D01*
X11820000Y-10480000D02*
X11780000Y-10520000D01*
X11780000Y-10780000D02*
X11820000Y-10820000D01*
X11820000Y-10780000D02*
X11780000Y-10820000D01*
X11780000Y-11180000D02*
X11820000Y-11220000D01*
X11820000Y-11180000D02*
X11780000Y-11220000D01*
X11780000Y-11580000D02*
X11820000Y-11620000D01*
X11820000Y-11580000D02*
X11780000Y-11620000D01*
X11780000Y-11980000D02*
X11820000Y-12020000D01*
X11820000Y-11980000D02*
X11780000Y-12020000D01*
X11780000Y-12380000D02*
X11820000Y-12420000D01*
X11820000Y-12380000D02*
X11780000Y-12420000D01*
X11780000Y-12780000D02*
X11820000Y-12820000D01*
X11820000Y-12780000D02*
X11780000Y-12820000D01*
X11780000Y-13180000D02*
X11820000Y-13220000D01*
X11820000Y-13180000D02*
X11780000Y-13220000D01*
X11930000Y-9680000D02*
X11970000Y-9720000D01*
X11970000Y-9680000D02*
X11930000Y-9720000D01*
X11930000Y-10280000D02*
X11970000Y-10320000D01*
X11970000Y-10280000D02*
X11930000Y-10320000D01*
X11980000Y-6380000D02*
X12020000Y-6420000D01*
X12020000Y-6380000D02*
X11980000Y-6420000D01*
X11980000Y-13580000D02*
X12020000Y-13620000D01*
X12020000Y-13580000D02*
X11980000Y-13620000D01*
X12130000Y-9680000D02*
X12170000Y-9720000D01*
X12170000Y-9680000D02*
X12130000Y-9720000D01*
X12130000Y-10280000D02*
X12170000Y-10320000D01*
X12170000Y-10280000D02*
X12130000Y-10320000D01*
X12180000Y-6580000D02*
X12220000Y-6620000D01*
X12220000Y-6580000D02*
X12180000Y-6620000D01*
X12180000Y-6980000D02*
X12220000Y-7020000D01*
X12220000Y-6980000D02*
X12180000Y-7020000D01*
X12180000Y-7380000D02*
X12220000Y-7420000D01*
X12220000Y-7380000D02*
X12180000Y-7420000D01*
X12180000Y-7780000D02*
X12220000Y-7820000D01*
X12220000Y-7780000D02*
X12180000Y-7820000D01*
X12180000Y-8180000D02*
X12220000Y-8220000D01*
X12220000Y-8180000D02*
X12180000Y-8220000D01*
X12180000Y-8580000D02*
X12220000Y-8620000D01*
X12220000Y-8580000D02*
X12180000Y-8620000D01*
X12180000Y-8980000D02*
X12220000Y-9020000D01*
X12220000Y-8980000D02*
X12180000Y-9020000D01*
X12180000Y-9380000D02*
X12220000Y-9420000D01*
X12220000Y-9380000D02*
X12180000Y-9420000D01*
X12180000Y-10580000D02*
X12220000Y-10620000D01*
X12220000Y-10580000D02*
X12180000Y-10620000D01*
X12180000Y-10980000D02*
X12220000Y-11020000D01*
X12220000Y-10980000D02*
X12180000Y-11020000D01*
X12180000Y-11380000D02*
X12220000Y-11420000D01*
X12220000Y-11380000D02*
X12180000Y-11420000D01*
X12180000Y-11780000D02*
X12220000Y-11820000D01*
X12220000Y-11780000D02*
X12180000Y-11820000D01*
X12180000Y-12180000D02*
X12220000Y-12220000D01*
X12220000Y-12180000D02*
X12180000Y-12220000D01*
X12180000Y-12580000D02*
X12220000Y-12620000D01*
X12220000Y-12580000D02*
X12180000Y-12620000D01*
X12180000Y-12980000D02*
X12220000Y-13020000D01*
X12220000Y-12980000D02*
X12180000Y-13020000D01*
X12180000Y-13380000D02*
X12220000Y-13420000D01*
X12220000Y-13380000D02*
X12180000Y-13420000D01*
X12280000Y-6380000D02*
X12320000Y-6420000D01*
X12320000Y-6380000D02*
X12280000Y-6420000D01*
X12280000Y-13580000D02*
X12320000Y-13620000D01*
X12320000Y-13580000D02*
X12280000Y-13620000D01*
X12330000Y-9680000D02*
X12370000Y-9720000D01*
X12370000Y-9680000D02*
X12330000Y-9720000D01*
X12330000Y-10280000D02*
X12370000Y-10320000D01*
X12370000Y-10280000D02*
X12330000Y-10320000D01*
X12580000Y-6380000D02*
X12620000Y-6420000D01*
X12620000Y-6380000D02*
X12580000Y-6420000D01*
X12580000Y-6780000D02*
X12620000Y-6820000D01*
X12620000Y-6780000D02*
X12580000Y-6820000D01*
X12580000Y-7180000D02*
X12620000Y-7220000D01*
X12620000Y-7180000D02*
X12580000Y-7220000D01*
X12580000Y-7580000D02*
X12620000Y-7620000D01*
X12620000Y-7580000D02*
X12580000Y-7620000D01*
X12580000Y-7980000D02*
X12620000Y-8020000D01*
X12620000Y-7980000D02*
X12580000Y-8020000D01*
X12580000Y-8380000D02*
X12620000Y-8420000D01*
X12620000Y-8380000D02*
X12580000Y-8420000D01*
X12580000Y-8780000D02*
X12620000Y-8820000D01*
X12620000Y-8780000D02*
X12580000Y-8820000D01*
X12580000Y-9180000D02*
X12620000Y-9220000D01*
X12620000Y-9180000D02*
X12580000Y-9220000D01*
X12580000Y-10380000D02*
X12620000Y-10420000D01*
X12620000Y-10380000D02*
X12580000Y-10420000D01*
X12580000Y-10780000D02*
X12620000Y-10820000D01*
X12620000Y-10780000D02*
X12580000Y-10820000D01*
X12580000Y-11180000D02*
X12620000Y-11220000D01*
X12620000Y-11180000D02*
X12580000Y-11220000D01*
X12580000Y-11580000D02*
X12620000Y-11620000D01*
X12620000Y-11580000D02*
X12580000Y-11620000D01*
X12580000Y-11980000D02*
X12620000Y-12020000D01*
X12620000Y-11980000D02*
X12580000Y-12020000D01*
X12580000Y-12380000D02*
X12620000Y-12420000D01*
X12620000Y-12380000D02*
X12580000Y-12420000D01*
X12580000Y-12780000D02*
X12620000Y-12820000D01*
X12620000Y-12780000D02*
X12580000Y-12820000D01*
X12580000Y-13180000D02*
X12620000Y-13220000D01*
X12620000Y-13180000D02*
X12580000Y-13220000D01*
X12580000Y-13580000D02*
X12620000Y-13620000D01*
X12620000Y-13580000D02*
X12580000Y-13620000D01*
X12880000Y-6380000D02*
X12920000Y-6420000D01*
X12920000Y-6380000D02*
X12880000Y-6420000D01*
X12880000Y-6730000D02*
X12920000Y-6770000D01*
X12920000Y-6730000D02*
X12880000Y-6770000D01*
X12880000Y-13030000D02*
X12920000Y-13070000D01*
X12920000Y-13030000D02*
X12880000Y-13070000D01*
X12880000Y-13330000D02*
X12920000Y-13370000D01*
X12920000Y-13330000D02*
X12880000Y-13370000D01*
X12880000Y-13580000D02*
X12920000Y-13620000D01*
X12920000Y-13580000D02*
X12880000Y-13620000D01*
X12955000Y-6955000D02*
X12995000Y-6995000D01*
X12995000Y-6955000D02*
X12955000Y-6995000D01*
X12980000Y-8180000D02*
X13020000Y-8220000D01*
X13020000Y-8180000D02*
X12980000Y-8220000D01*
X12980000Y-8580000D02*
X13020000Y-8620000D01*
X13020000Y-8580000D02*
X12980000Y-8620000D01*
X12980000Y-8980000D02*
X13020000Y-9020000D01*
X13020000Y-8980000D02*
X12980000Y-9020000D01*
X12980000Y-9380000D02*
X13020000Y-9420000D01*
X13020000Y-9380000D02*
X12980000Y-9420000D01*
X12980000Y-9780000D02*
X13020000Y-9820000D01*
X13020000Y-9780000D02*
X12980000Y-9820000D01*
X12980000Y-10180000D02*
X13020000Y-10220000D01*
X13020000Y-10180000D02*
X12980000Y-10220000D01*
X12980000Y-10580000D02*
X13020000Y-10620000D01*
X13020000Y-10580000D02*
X12980000Y-10620000D01*
X12980000Y-10980000D02*
X13020000Y-11020000D01*
X13020000Y-10980000D02*
X12980000Y-11020000D01*
X12980000Y-11380000D02*
X13020000Y-11420000D01*
X13020000Y-11380000D02*
X12980000Y-11420000D01*
X12980000Y-11780000D02*
X13020000Y-11820000D01*
X13020000Y-11780000D02*
X12980000Y-11820000D01*
X13180000Y-7080000D02*
X13220000Y-7120000D01*
X13220000Y-7080000D02*
X13180000Y-7120000D01*
X13180000Y-12880000D02*
X13220000Y-12920000D01*
X13220000Y-12880000D02*
X13180000Y-12920000D01*
X13380000Y-7380000D02*
X13420000Y-7420000D01*
X13420000Y-7380000D02*
X13380000Y-7420000D01*
X13380000Y-7680000D02*
X13420000Y-7720000D01*
X13420000Y-7680000D02*
X13380000Y-7720000D01*
X13380000Y-7980000D02*
X13420000Y-8020000D01*
X13420000Y-7980000D02*
X13380000Y-8020000D01*
X13380000Y-8380000D02*
X13420000Y-8420000D01*
X13420000Y-8380000D02*
X13380000Y-8420000D01*
X13380000Y-8780000D02*
X13420000Y-8820000D01*
X13420000Y-8780000D02*
X13380000Y-8820000D01*
X13380000Y-9180000D02*
X13420000Y-9220000D01*
X13420000Y-9180000D02*
X13380000Y-9220000D01*
X13380000Y-9580000D02*
X13420000Y-9620000D01*
X13420000Y-9580000D02*
X13380000Y-9620000D01*
X13380000Y-9980000D02*
X13420000Y-10020000D01*
X13420000Y-9980000D02*
X13380000Y-10020000D01*
X13380000Y-10380000D02*
X13420000Y-10420000D01*
X13420000Y-10380000D02*
X13380000Y-10420000D01*
X13380000Y-10780000D02*
X13420000Y-10820000D01*
X13420000Y-10780000D02*
X13380000Y-10820000D01*
X13380000Y-11180000D02*
X13420000Y-11220000D01*
X13420000Y-11180000D02*
X13380000Y-11220000D01*
X13380000Y-11580000D02*
X13420000Y-11620000D01*
X13420000Y-11580000D02*
X13380000Y-11620000D01*
X13380000Y-11980000D02*
X13420000Y-12020000D01*
X13420000Y-11980000D02*
X13380000Y-12020000D01*
X13380000Y-12380000D02*
X13420000Y-12420000D01*
X13420000Y-12380000D02*
X13380000Y-12420000D01*
X13380000Y-12780000D02*
X13420000Y-12820000D01*
X13420000Y-12780000D02*
X13380000Y-12820000D01*
X13480000Y-7080000D02*
X13520000Y-7120000D01*
X13520000Y-7080000D02*
X13480000Y-7120000D01*
X13580000Y-7180000D02*
X13620000Y-7220000D01*
X13620000Y-7180000D02*
X13580000Y-7220000D01*
X13580000Y-7480000D02*
X13620000Y-7520000D01*
X13620000Y-7480000D02*
X13580000Y-7520000D01*
X13580000Y-7780000D02*
X13620000Y-7820000D01*
X13620000Y-7780000D02*
X13580000Y-7820000D01*
X13580000Y-8080000D02*
X13620000Y-8120000D01*
X13620000Y-8080000D02*
X13580000Y-8120000D01*
X13580000Y-8380000D02*
X13620000Y-8420000D01*
X13620000Y-8380000D02*
X13580000Y-8420000D01*
X13580000Y-8680000D02*
X13620000Y-8720000D01*
X13620000Y-8680000D02*
X13580000Y-8720000D01*
X13580000Y-8980000D02*
X13620000Y-9020000D01*
X13620000Y-8980000D02*
X13580000Y-9020000D01*
X13580000Y-9280000D02*
X13620000Y-9320000D01*
X13620000Y-9280000D02*
X13580000Y-9320000D01*
X13580000Y-9580000D02*
X13620000Y-9620000D01*
X13620000Y-9580000D02*
X13580000Y-9620000D01*
X13580000Y-9880000D02*
X13620000Y-9920000D01*
X13620000Y-9880000D02*
X13580000Y-9920000D01*
X13580000Y-10180000D02*
X13620000Y-10220000D01*
X13620000Y-10180000D02*
X13580000Y-10220000D01*
X13580000Y-10480000D02*
X13620000Y-10520000D01*
X13620000Y-10480000D02*
X13580000Y-10520000D01*
X13580000Y-10780000D02*
X13620000Y-10820000D01*
X13620000Y-10780000D02*
X13580000Y-10820000D01*
X13580000Y-11080000D02*
X13620000Y-11120000D01*
X13620000Y-11080000D02*
X13580000Y-11120000D01*
X13580000Y-11380000D02*
X13620000Y-11420000D01*
X13620000Y-11380000D02*
X13580000Y-11420000D01*
X13580000Y-11680000D02*
X13620000Y-11720000D01*
X13620000Y-11680000D02*
X13580000Y-11720000D01*
X13580000Y-11980000D02*
X13620000Y-12020000D01*
X13620000Y-11980000D02*
X13580000Y-12020000D01*
X13580000Y-12280000D02*
X13620000Y-12320000D01*
X13620000Y-12280000D02*
X13580000Y-12320000D01*
X13580000Y-12580000D02*
X13620000Y-12620000D01*
X13620000Y-12580000D02*
X13580000Y-12620000D01*
X13580000Y-12880000D02*
X13620000Y-12920000D01*
X13620000Y-12880000D02*
X13580000Y-12920000D01*
D13*
X9810000Y-10000000D02*
G75*
G02*
X9690000Y-10000000I-60000J0D01*
G01*
X9690000Y-10000000D02*
G75*
G02*
X9810000Y-10000000I60000J0D01*
G01*
D14*
X7000000Y-7370000D02*
X7000000Y-7630000D01*
X6870000Y-7500000D02*
X7130000Y-7500000D01*
X7000000Y-12370000D02*
X7000000Y-12630000D01*
X6870000Y-12500000D02*
X7130000Y-12500000D01*
X13000000Y-7370000D02*
X13000000Y-7630000D01*
X12870000Y-7500000D02*
X13130000Y-7500000D01*
X13000000Y-12370000D02*
X13000000Y-12630000D01*
X12870000Y-12500000D02*
X13130000Y-12500000D01*
D11*
X6556277Y-14015984D02*
X6556277Y-13815984D01*
X6556277Y-13815984D02*
X6603896Y-13815984D01*
X6603896Y-13815984D02*
X6632467Y-13825508D01*
X6632467Y-13825508D02*
X6651515Y-13844555D01*
X6651515Y-13844555D02*
X6661039Y-13863603D01*
X6661039Y-13863603D02*
X6670562Y-13901698D01*
X6670562Y-13901698D02*
X6670562Y-13930269D01*
X6670562Y-13930269D02*
X6661039Y-13968365D01*
X6661039Y-13968365D02*
X6651515Y-13987412D01*
X6651515Y-13987412D02*
X6632467Y-14006460D01*
X6632467Y-14006460D02*
X6603896Y-14015984D01*
X6603896Y-14015984D02*
X6556277Y-14015984D01*
X6756277Y-14015984D02*
X6756277Y-13882650D01*
X6756277Y-13920746D02*
X6765801Y-13901698D01*
X6765801Y-13901698D02*
X6775324Y-13892174D01*
X6775324Y-13892174D02*
X6794372Y-13882650D01*
X6794372Y-13882650D02*
X6813420Y-13882650D01*
X6880086Y-14015984D02*
X6880086Y-13882650D01*
X6880086Y-13815984D02*
X6870562Y-13825508D01*
X6870562Y-13825508D02*
X6880086Y-13835031D01*
X6880086Y-13835031D02*
X6889610Y-13825508D01*
X6889610Y-13825508D02*
X6880086Y-13815984D01*
X6880086Y-13815984D02*
X6880086Y-13835031D01*
X7003896Y-14015984D02*
X6984848Y-14006460D01*
X6984848Y-14006460D02*
X6975324Y-13987412D01*
X6975324Y-13987412D02*
X6975324Y-13815984D01*
X7108658Y-14015984D02*
X7089610Y-14006460D01*
X7089610Y-14006460D02*
X7080086Y-13987412D01*
X7080086Y-13987412D02*
X7080086Y-13815984D01*
X7337229Y-14015984D02*
X7337229Y-13815984D01*
X7337229Y-13815984D02*
X7403896Y-13958841D01*
X7403896Y-13958841D02*
X7470562Y-13815984D01*
X7470562Y-13815984D02*
X7470562Y-14015984D01*
X7651515Y-14015984D02*
X7651515Y-13911222D01*
X7651515Y-13911222D02*
X7641991Y-13892174D01*
X7641991Y-13892174D02*
X7622943Y-13882650D01*
X7622943Y-13882650D02*
X7584848Y-13882650D01*
X7584848Y-13882650D02*
X7565801Y-13892174D01*
X7651515Y-14006460D02*
X7632467Y-14015984D01*
X7632467Y-14015984D02*
X7584848Y-14015984D01*
X7584848Y-14015984D02*
X7565801Y-14006460D01*
X7565801Y-14006460D02*
X7556277Y-13987412D01*
X7556277Y-13987412D02*
X7556277Y-13968365D01*
X7556277Y-13968365D02*
X7565801Y-13949317D01*
X7565801Y-13949317D02*
X7584848Y-13939793D01*
X7584848Y-13939793D02*
X7632467Y-13939793D01*
X7632467Y-13939793D02*
X7651515Y-13930269D01*
X7746753Y-13882650D02*
X7746753Y-14082650D01*
X7746753Y-13892174D02*
X7765801Y-13882650D01*
X7765801Y-13882650D02*
X7803896Y-13882650D01*
X7803896Y-13882650D02*
X7822943Y-13892174D01*
X7822943Y-13892174D02*
X7832467Y-13901698D01*
X7832467Y-13901698D02*
X7841991Y-13920746D01*
X7841991Y-13920746D02*
X7841991Y-13977888D01*
X7841991Y-13977888D02*
X7832467Y-13996936D01*
X7832467Y-13996936D02*
X7822943Y-14006460D01*
X7822943Y-14006460D02*
X7803896Y-14015984D01*
X7803896Y-14015984D02*
X7765801Y-14015984D01*
X7765801Y-14015984D02*
X7746753Y-14006460D01*
X7927705Y-13996936D02*
X7937229Y-14006460D01*
X7937229Y-14006460D02*
X7927705Y-14015984D01*
X7927705Y-14015984D02*
X7918182Y-14006460D01*
X7918182Y-14006460D02*
X7927705Y-13996936D01*
X7927705Y-13996936D02*
X7927705Y-14015984D01*
X7927705Y-13892174D02*
X7937229Y-13901698D01*
X7937229Y-13901698D02*
X7927705Y-13911222D01*
X7927705Y-13911222D02*
X7918182Y-13901698D01*
X7918182Y-13901698D02*
X7927705Y-13892174D01*
X7927705Y-13892174D02*
X7927705Y-13911222D01*
D12*
X6255500Y-14324500D02*
X6295500Y-14364500D01*
X6295500Y-14324500D02*
X6255500Y-14364500D01*
D11*
X6594372Y-14235984D02*
X6613420Y-14235984D01*
X6613420Y-14235984D02*
X6632467Y-14245508D01*
X6632467Y-14245508D02*
X6641991Y-14255031D01*
X6641991Y-14255031D02*
X6651515Y-14274079D01*
X6651515Y-14274079D02*
X6661039Y-14312174D01*
X6661039Y-14312174D02*
X6661039Y-14359793D01*
X6661039Y-14359793D02*
X6651515Y-14397888D01*
X6651515Y-14397888D02*
X6641991Y-14416936D01*
X6641991Y-14416936D02*
X6632467Y-14426460D01*
X6632467Y-14426460D02*
X6613420Y-14435984D01*
X6613420Y-14435984D02*
X6594372Y-14435984D01*
X6594372Y-14435984D02*
X6575324Y-14426460D01*
X6575324Y-14426460D02*
X6565801Y-14416936D01*
X6565801Y-14416936D02*
X6556277Y-14397888D01*
X6556277Y-14397888D02*
X6546753Y-14359793D01*
X6546753Y-14359793D02*
X6546753Y-14312174D01*
X6546753Y-14312174D02*
X6556277Y-14274079D01*
X6556277Y-14274079D02*
X6565801Y-14255031D01*
X6565801Y-14255031D02*
X6575324Y-14245508D01*
X6575324Y-14245508D02*
X6594372Y-14235984D01*
X6746753Y-14416936D02*
X6756277Y-14426460D01*
X6756277Y-14426460D02*
X6746753Y-14435984D01*
X6746753Y-14435984D02*
X6737229Y-14426460D01*
X6737229Y-14426460D02*
X6746753Y-14416936D01*
X6746753Y-14416936D02*
X6746753Y-14435984D01*
X6927705Y-14302650D02*
X6927705Y-14435984D01*
X6880086Y-14226460D02*
X6832467Y-14369317D01*
X6832467Y-14369317D02*
X6956277Y-14369317D01*
X7070562Y-14235984D02*
X7089610Y-14235984D01*
X7089610Y-14235984D02*
X7108658Y-14245508D01*
X7108658Y-14245508D02*
X7118182Y-14255031D01*
X7118182Y-14255031D02*
X7127705Y-14274079D01*
X7127705Y-14274079D02*
X7137229Y-14312174D01*
X7137229Y-14312174D02*
X7137229Y-14359793D01*
X7137229Y-14359793D02*
X7127705Y-14397888D01*
X7127705Y-14397888D02*
X7118182Y-14416936D01*
X7118182Y-14416936D02*
X7108658Y-14426460D01*
X7108658Y-14426460D02*
X7089610Y-14435984D01*
X7089610Y-14435984D02*
X7070562Y-14435984D01*
X7070562Y-14435984D02*
X7051515Y-14426460D01*
X7051515Y-14426460D02*
X7041991Y-14416936D01*
X7041991Y-14416936D02*
X7032467Y-14397888D01*
X7032467Y-14397888D02*
X7022943Y-14359793D01*
X7022943Y-14359793D02*
X7022943Y-14312174D01*
X7022943Y-14312174D02*
X7032467Y-14274079D01*
X7032467Y-14274079D02*
X7041991Y-14255031D01*
X7041991Y-14255031D02*
X7051515Y-14245508D01*
X7051515Y-14245508D02*
X7070562Y-14235984D01*
X7261039Y-14235984D02*
X7280086Y-14235984D01*
X7280086Y-14235984D02*
X7299134Y-14245508D01*
X7299134Y-14245508D02*
X7308658Y-14255031D01*
X7308658Y-14255031D02*
X7318182Y-14274079D01*
X7318182Y-14274079D02*
X7327705Y-14312174D01*
X7327705Y-14312174D02*
X7327705Y-14359793D01*
X7327705Y-14359793D02*
X7318182Y-14397888D01*
X7318182Y-14397888D02*
X7308658Y-14416936D01*
X7308658Y-14416936D02*
X7299134Y-14426460D01*
X7299134Y-14426460D02*
X7280086Y-14435984D01*
X7280086Y-14435984D02*
X7261039Y-14435984D01*
X7261039Y-14435984D02*
X7241991Y-14426460D01*
X7241991Y-14426460D02*
X7232467Y-14416936D01*
X7232467Y-14416936D02*
X7222943Y-14397888D01*
X7222943Y-14397888D02*
X7213420Y-14359793D01*
X7213420Y-14359793D02*
X7213420Y-14312174D01*
X7213420Y-14312174D02*
X7222943Y-14274079D01*
X7222943Y-14274079D02*
X7232467Y-14255031D01*
X7232467Y-14255031D02*
X7241991Y-14245508D01*
X7241991Y-14245508D02*
X7261039Y-14235984D01*
X7413420Y-14435984D02*
X7413420Y-14302650D01*
X7413420Y-14321698D02*
X7422943Y-14312174D01*
X7422943Y-14312174D02*
X7441991Y-14302650D01*
X7441991Y-14302650D02*
X7470563Y-14302650D01*
X7470563Y-14302650D02*
X7489610Y-14312174D01*
X7489610Y-14312174D02*
X7499134Y-14331222D01*
X7499134Y-14331222D02*
X7499134Y-14435984D01*
X7499134Y-14331222D02*
X7508658Y-14312174D01*
X7508658Y-14312174D02*
X7527705Y-14302650D01*
X7527705Y-14302650D02*
X7556277Y-14302650D01*
X7556277Y-14302650D02*
X7575324Y-14312174D01*
X7575324Y-14312174D02*
X7584848Y-14331222D01*
X7584848Y-14331222D02*
X7584848Y-14435984D01*
X7680086Y-14435984D02*
X7680086Y-14302650D01*
X7680086Y-14321698D02*
X7689610Y-14312174D01*
X7689610Y-14312174D02*
X7708658Y-14302650D01*
X7708658Y-14302650D02*
X7737229Y-14302650D01*
X7737229Y-14302650D02*
X7756277Y-14312174D01*
X7756277Y-14312174D02*
X7765801Y-14331222D01*
X7765801Y-14331222D02*
X7765801Y-14435984D01*
X7765801Y-14331222D02*
X7775324Y-14312174D01*
X7775324Y-14312174D02*
X7794372Y-14302650D01*
X7794372Y-14302650D02*
X7822943Y-14302650D01*
X7822943Y-14302650D02*
X7841991Y-14312174D01*
X7841991Y-14312174D02*
X7851515Y-14331222D01*
X7851515Y-14331222D02*
X7851515Y-14435984D01*
X8241991Y-14226460D02*
X8070563Y-14483603D01*
X8499134Y-14235984D02*
X8518182Y-14235984D01*
X8518182Y-14235984D02*
X8537229Y-14245508D01*
X8537229Y-14245508D02*
X8546753Y-14255031D01*
X8546753Y-14255031D02*
X8556277Y-14274079D01*
X8556277Y-14274079D02*
X8565801Y-14312174D01*
X8565801Y-14312174D02*
X8565801Y-14359793D01*
X8565801Y-14359793D02*
X8556277Y-14397888D01*
X8556277Y-14397888D02*
X8546753Y-14416936D01*
X8546753Y-14416936D02*
X8537229Y-14426460D01*
X8537229Y-14426460D02*
X8518182Y-14435984D01*
X8518182Y-14435984D02*
X8499134Y-14435984D01*
X8499134Y-14435984D02*
X8480087Y-14426460D01*
X8480087Y-14426460D02*
X8470563Y-14416936D01*
X8470563Y-14416936D02*
X8461039Y-14397888D01*
X8461039Y-14397888D02*
X8451515Y-14359793D01*
X8451515Y-14359793D02*
X8451515Y-14312174D01*
X8451515Y-14312174D02*
X8461039Y-14274079D01*
X8461039Y-14274079D02*
X8470563Y-14255031D01*
X8470563Y-14255031D02*
X8480087Y-14245508D01*
X8480087Y-14245508D02*
X8499134Y-14235984D01*
X8651515Y-14416936D02*
X8661039Y-14426460D01*
X8661039Y-14426460D02*
X8651515Y-14435984D01*
X8651515Y-14435984D02*
X8641991Y-14426460D01*
X8641991Y-14426460D02*
X8651515Y-14416936D01*
X8651515Y-14416936D02*
X8651515Y-14435984D01*
X8784848Y-14235984D02*
X8803896Y-14235984D01*
X8803896Y-14235984D02*
X8822944Y-14245508D01*
X8822944Y-14245508D02*
X8832468Y-14255031D01*
X8832468Y-14255031D02*
X8841991Y-14274079D01*
X8841991Y-14274079D02*
X8851515Y-14312174D01*
X8851515Y-14312174D02*
X8851515Y-14359793D01*
X8851515Y-14359793D02*
X8841991Y-14397888D01*
X8841991Y-14397888D02*
X8832468Y-14416936D01*
X8832468Y-14416936D02*
X8822944Y-14426460D01*
X8822944Y-14426460D02*
X8803896Y-14435984D01*
X8803896Y-14435984D02*
X8784848Y-14435984D01*
X8784848Y-14435984D02*
X8765801Y-14426460D01*
X8765801Y-14426460D02*
X8756277Y-14416936D01*
X8756277Y-14416936D02*
X8746753Y-14397888D01*
X8746753Y-14397888D02*
X8737229Y-14359793D01*
X8737229Y-14359793D02*
X8737229Y-14312174D01*
X8737229Y-14312174D02*
X8746753Y-14274079D01*
X8746753Y-14274079D02*
X8756277Y-14255031D01*
X8756277Y-14255031D02*
X8765801Y-14245508D01*
X8765801Y-14245508D02*
X8784848Y-14235984D01*
X9041991Y-14435984D02*
X8927706Y-14435984D01*
X8984848Y-14435984D02*
X8984848Y-14235984D01*
X8984848Y-14235984D02*
X8965801Y-14264555D01*
X8965801Y-14264555D02*
X8946753Y-14283603D01*
X8946753Y-14283603D02*
X8927706Y-14293127D01*
X9222944Y-14235984D02*
X9127706Y-14235984D01*
X9127706Y-14235984D02*
X9118182Y-14331222D01*
X9118182Y-14331222D02*
X9127706Y-14321698D01*
X9127706Y-14321698D02*
X9146753Y-14312174D01*
X9146753Y-14312174D02*
X9194372Y-14312174D01*
X9194372Y-14312174D02*
X9213420Y-14321698D01*
X9213420Y-14321698D02*
X9222944Y-14331222D01*
X9222944Y-14331222D02*
X9232468Y-14350269D01*
X9232468Y-14350269D02*
X9232468Y-14397888D01*
X9232468Y-14397888D02*
X9222944Y-14416936D01*
X9222944Y-14416936D02*
X9213420Y-14426460D01*
X9213420Y-14426460D02*
X9194372Y-14435984D01*
X9194372Y-14435984D02*
X9146753Y-14435984D01*
X9146753Y-14435984D02*
X9127706Y-14426460D01*
X9127706Y-14426460D02*
X9118182Y-14416936D01*
X9299134Y-14235984D02*
X9432468Y-14235984D01*
X9432468Y-14235984D02*
X9346753Y-14435984D01*
X9499134Y-14235984D02*
X9499134Y-14274079D01*
X9575325Y-14235984D02*
X9575325Y-14274079D01*
X9870563Y-14512174D02*
X9861039Y-14502650D01*
X9861039Y-14502650D02*
X9841991Y-14474079D01*
X9841991Y-14474079D02*
X9832468Y-14455031D01*
X9832468Y-14455031D02*
X9822944Y-14426460D01*
X9822944Y-14426460D02*
X9813420Y-14378841D01*
X9813420Y-14378841D02*
X9813420Y-14340746D01*
X9813420Y-14340746D02*
X9822944Y-14293127D01*
X9822944Y-14293127D02*
X9832468Y-14264555D01*
X9832468Y-14264555D02*
X9841991Y-14245508D01*
X9841991Y-14245508D02*
X9861039Y-14216936D01*
X9861039Y-14216936D02*
X9870563Y-14207412D01*
X10032468Y-14302650D02*
X10032468Y-14435984D01*
X9984849Y-14226460D02*
X9937230Y-14369317D01*
X9937230Y-14369317D02*
X10061039Y-14369317D01*
X10175325Y-14235984D02*
X10194372Y-14235984D01*
X10194372Y-14235984D02*
X10213420Y-14245508D01*
X10213420Y-14245508D02*
X10222944Y-14255031D01*
X10222944Y-14255031D02*
X10232468Y-14274079D01*
X10232468Y-14274079D02*
X10241991Y-14312174D01*
X10241991Y-14312174D02*
X10241991Y-14359793D01*
X10241991Y-14359793D02*
X10232468Y-14397888D01*
X10232468Y-14397888D02*
X10222944Y-14416936D01*
X10222944Y-14416936D02*
X10213420Y-14426460D01*
X10213420Y-14426460D02*
X10194372Y-14435984D01*
X10194372Y-14435984D02*
X10175325Y-14435984D01*
X10175325Y-14435984D02*
X10156277Y-14426460D01*
X10156277Y-14426460D02*
X10146753Y-14416936D01*
X10146753Y-14416936D02*
X10137230Y-14397888D01*
X10137230Y-14397888D02*
X10127706Y-14359793D01*
X10127706Y-14359793D02*
X10127706Y-14312174D01*
X10127706Y-14312174D02*
X10137230Y-14274079D01*
X10137230Y-14274079D02*
X10146753Y-14255031D01*
X10146753Y-14255031D02*
X10156277Y-14245508D01*
X10156277Y-14245508D02*
X10175325Y-14235984D01*
X10422944Y-14235984D02*
X10327706Y-14235984D01*
X10327706Y-14235984D02*
X10318182Y-14331222D01*
X10318182Y-14331222D02*
X10327706Y-14321698D01*
X10327706Y-14321698D02*
X10346753Y-14312174D01*
X10346753Y-14312174D02*
X10394372Y-14312174D01*
X10394372Y-14312174D02*
X10413420Y-14321698D01*
X10413420Y-14321698D02*
X10422944Y-14331222D01*
X10422944Y-14331222D02*
X10432468Y-14350269D01*
X10432468Y-14350269D02*
X10432468Y-14397888D01*
X10432468Y-14397888D02*
X10422944Y-14416936D01*
X10422944Y-14416936D02*
X10413420Y-14426460D01*
X10413420Y-14426460D02*
X10394372Y-14435984D01*
X10394372Y-14435984D02*
X10346753Y-14435984D01*
X10346753Y-14435984D02*
X10327706Y-14426460D01*
X10327706Y-14426460D02*
X10318182Y-14416936D01*
X10670563Y-14435984D02*
X10670563Y-14235984D01*
X10756277Y-14435984D02*
X10756277Y-14331222D01*
X10756277Y-14331222D02*
X10746753Y-14312174D01*
X10746753Y-14312174D02*
X10727706Y-14302650D01*
X10727706Y-14302650D02*
X10699134Y-14302650D01*
X10699134Y-14302650D02*
X10680087Y-14312174D01*
X10680087Y-14312174D02*
X10670563Y-14321698D01*
X10880087Y-14435984D02*
X10861039Y-14426460D01*
X10861039Y-14426460D02*
X10851515Y-14416936D01*
X10851515Y-14416936D02*
X10841992Y-14397888D01*
X10841992Y-14397888D02*
X10841992Y-14340746D01*
X10841992Y-14340746D02*
X10851515Y-14321698D01*
X10851515Y-14321698D02*
X10861039Y-14312174D01*
X10861039Y-14312174D02*
X10880087Y-14302650D01*
X10880087Y-14302650D02*
X10908658Y-14302650D01*
X10908658Y-14302650D02*
X10927706Y-14312174D01*
X10927706Y-14312174D02*
X10937230Y-14321698D01*
X10937230Y-14321698D02*
X10946753Y-14340746D01*
X10946753Y-14340746D02*
X10946753Y-14397888D01*
X10946753Y-14397888D02*
X10937230Y-14416936D01*
X10937230Y-14416936D02*
X10927706Y-14426460D01*
X10927706Y-14426460D02*
X10908658Y-14435984D01*
X10908658Y-14435984D02*
X10880087Y-14435984D01*
X11061039Y-14435984D02*
X11041992Y-14426460D01*
X11041992Y-14426460D02*
X11032468Y-14407412D01*
X11032468Y-14407412D02*
X11032468Y-14235984D01*
X11213420Y-14426460D02*
X11194372Y-14435984D01*
X11194372Y-14435984D02*
X11156277Y-14435984D01*
X11156277Y-14435984D02*
X11137230Y-14426460D01*
X11137230Y-14426460D02*
X11127706Y-14407412D01*
X11127706Y-14407412D02*
X11127706Y-14331222D01*
X11127706Y-14331222D02*
X11137230Y-14312174D01*
X11137230Y-14312174D02*
X11156277Y-14302650D01*
X11156277Y-14302650D02*
X11194372Y-14302650D01*
X11194372Y-14302650D02*
X11213420Y-14312174D01*
X11213420Y-14312174D02*
X11222944Y-14331222D01*
X11222944Y-14331222D02*
X11222944Y-14350269D01*
X11222944Y-14350269D02*
X11127706Y-14369317D01*
X11299134Y-14426460D02*
X11318182Y-14435984D01*
X11318182Y-14435984D02*
X11356277Y-14435984D01*
X11356277Y-14435984D02*
X11375325Y-14426460D01*
X11375325Y-14426460D02*
X11384849Y-14407412D01*
X11384849Y-14407412D02*
X11384849Y-14397888D01*
X11384849Y-14397888D02*
X11375325Y-14378841D01*
X11375325Y-14378841D02*
X11356277Y-14369317D01*
X11356277Y-14369317D02*
X11327706Y-14369317D01*
X11327706Y-14369317D02*
X11308658Y-14359793D01*
X11308658Y-14359793D02*
X11299134Y-14340746D01*
X11299134Y-14340746D02*
X11299134Y-14331222D01*
X11299134Y-14331222D02*
X11308658Y-14312174D01*
X11308658Y-14312174D02*
X11327706Y-14302650D01*
X11327706Y-14302650D02*
X11356277Y-14302650D01*
X11356277Y-14302650D02*
X11375325Y-14312174D01*
X11451515Y-14512174D02*
X11461039Y-14502650D01*
X11461039Y-14502650D02*
X11480087Y-14474079D01*
X11480087Y-14474079D02*
X11489611Y-14455031D01*
X11489611Y-14455031D02*
X11499134Y-14426460D01*
X11499134Y-14426460D02*
X11508658Y-14378841D01*
X11508658Y-14378841D02*
X11508658Y-14340746D01*
X11508658Y-14340746D02*
X11499134Y-14293127D01*
X11499134Y-14293127D02*
X11489611Y-14264555D01*
X11489611Y-14264555D02*
X11480087Y-14245508D01*
X11480087Y-14245508D02*
X11461039Y-14216936D01*
X11461039Y-14216936D02*
X11451515Y-14207412D01*
D13*
X6295500Y-14608500D02*
G75*
G02*
X6175500Y-14608500I-60000J0D01*
G01*
X6175500Y-14608500D02*
G75*
G02*
X6295500Y-14608500I60000J0D01*
G01*
D11*
X6661039Y-14699984D02*
X6546753Y-14699984D01*
X6603896Y-14699984D02*
X6603896Y-14499984D01*
X6603896Y-14499984D02*
X6584848Y-14528555D01*
X6584848Y-14528555D02*
X6565801Y-14547603D01*
X6565801Y-14547603D02*
X6546753Y-14557127D01*
X6746753Y-14680936D02*
X6756277Y-14690460D01*
X6756277Y-14690460D02*
X6746753Y-14699984D01*
X6746753Y-14699984D02*
X6737229Y-14690460D01*
X6737229Y-14690460D02*
X6746753Y-14680936D01*
X6746753Y-14680936D02*
X6746753Y-14699984D01*
X6832467Y-14519031D02*
X6841991Y-14509508D01*
X6841991Y-14509508D02*
X6861039Y-14499984D01*
X6861039Y-14499984D02*
X6908658Y-14499984D01*
X6908658Y-14499984D02*
X6927705Y-14509508D01*
X6927705Y-14509508D02*
X6937229Y-14519031D01*
X6937229Y-14519031D02*
X6946753Y-14538079D01*
X6946753Y-14538079D02*
X6946753Y-14557127D01*
X6946753Y-14557127D02*
X6937229Y-14585698D01*
X6937229Y-14585698D02*
X6822943Y-14699984D01*
X6822943Y-14699984D02*
X6946753Y-14699984D01*
X7070562Y-14499984D02*
X7089610Y-14499984D01*
X7089610Y-14499984D02*
X7108658Y-14509508D01*
X7108658Y-14509508D02*
X7118182Y-14519031D01*
X7118182Y-14519031D02*
X7127705Y-14538079D01*
X7127705Y-14538079D02*
X7137229Y-14576174D01*
X7137229Y-14576174D02*
X7137229Y-14623793D01*
X7137229Y-14623793D02*
X7127705Y-14661888D01*
X7127705Y-14661888D02*
X7118182Y-14680936D01*
X7118182Y-14680936D02*
X7108658Y-14690460D01*
X7108658Y-14690460D02*
X7089610Y-14699984D01*
X7089610Y-14699984D02*
X7070562Y-14699984D01*
X7070562Y-14699984D02*
X7051515Y-14690460D01*
X7051515Y-14690460D02*
X7041991Y-14680936D01*
X7041991Y-14680936D02*
X7032467Y-14661888D01*
X7032467Y-14661888D02*
X7022943Y-14623793D01*
X7022943Y-14623793D02*
X7022943Y-14576174D01*
X7022943Y-14576174D02*
X7032467Y-14538079D01*
X7032467Y-14538079D02*
X7041991Y-14519031D01*
X7041991Y-14519031D02*
X7051515Y-14509508D01*
X7051515Y-14509508D02*
X7070562Y-14499984D01*
X7261039Y-14499984D02*
X7280086Y-14499984D01*
X7280086Y-14499984D02*
X7299134Y-14509508D01*
X7299134Y-14509508D02*
X7308658Y-14519031D01*
X7308658Y-14519031D02*
X7318182Y-14538079D01*
X7318182Y-14538079D02*
X7327705Y-14576174D01*
X7327705Y-14576174D02*
X7327705Y-14623793D01*
X7327705Y-14623793D02*
X7318182Y-14661888D01*
X7318182Y-14661888D02*
X7308658Y-14680936D01*
X7308658Y-14680936D02*
X7299134Y-14690460D01*
X7299134Y-14690460D02*
X7280086Y-14699984D01*
X7280086Y-14699984D02*
X7261039Y-14699984D01*
X7261039Y-14699984D02*
X7241991Y-14690460D01*
X7241991Y-14690460D02*
X7232467Y-14680936D01*
X7232467Y-14680936D02*
X7222943Y-14661888D01*
X7222943Y-14661888D02*
X7213420Y-14623793D01*
X7213420Y-14623793D02*
X7213420Y-14576174D01*
X7213420Y-14576174D02*
X7222943Y-14538079D01*
X7222943Y-14538079D02*
X7232467Y-14519031D01*
X7232467Y-14519031D02*
X7241991Y-14509508D01*
X7241991Y-14509508D02*
X7261039Y-14499984D01*
X7413420Y-14699984D02*
X7413420Y-14566650D01*
X7413420Y-14585698D02*
X7422943Y-14576174D01*
X7422943Y-14576174D02*
X7441991Y-14566650D01*
X7441991Y-14566650D02*
X7470563Y-14566650D01*
X7470563Y-14566650D02*
X7489610Y-14576174D01*
X7489610Y-14576174D02*
X7499134Y-14595222D01*
X7499134Y-14595222D02*
X7499134Y-14699984D01*
X7499134Y-14595222D02*
X7508658Y-14576174D01*
X7508658Y-14576174D02*
X7527705Y-14566650D01*
X7527705Y-14566650D02*
X7556277Y-14566650D01*
X7556277Y-14566650D02*
X7575324Y-14576174D01*
X7575324Y-14576174D02*
X7584848Y-14595222D01*
X7584848Y-14595222D02*
X7584848Y-14699984D01*
X7680086Y-14699984D02*
X7680086Y-14566650D01*
X7680086Y-14585698D02*
X7689610Y-14576174D01*
X7689610Y-14576174D02*
X7708658Y-14566650D01*
X7708658Y-14566650D02*
X7737229Y-14566650D01*
X7737229Y-14566650D02*
X7756277Y-14576174D01*
X7756277Y-14576174D02*
X7765801Y-14595222D01*
X7765801Y-14595222D02*
X7765801Y-14699984D01*
X7765801Y-14595222D02*
X7775324Y-14576174D01*
X7775324Y-14576174D02*
X7794372Y-14566650D01*
X7794372Y-14566650D02*
X7822943Y-14566650D01*
X7822943Y-14566650D02*
X7841991Y-14576174D01*
X7841991Y-14576174D02*
X7851515Y-14595222D01*
X7851515Y-14595222D02*
X7851515Y-14699984D01*
X8241991Y-14490460D02*
X8070563Y-14747603D01*
X8499134Y-14499984D02*
X8518182Y-14499984D01*
X8518182Y-14499984D02*
X8537229Y-14509508D01*
X8537229Y-14509508D02*
X8546753Y-14519031D01*
X8546753Y-14519031D02*
X8556277Y-14538079D01*
X8556277Y-14538079D02*
X8565801Y-14576174D01*
X8565801Y-14576174D02*
X8565801Y-14623793D01*
X8565801Y-14623793D02*
X8556277Y-14661888D01*
X8556277Y-14661888D02*
X8546753Y-14680936D01*
X8546753Y-14680936D02*
X8537229Y-14690460D01*
X8537229Y-14690460D02*
X8518182Y-14699984D01*
X8518182Y-14699984D02*
X8499134Y-14699984D01*
X8499134Y-14699984D02*
X8480087Y-14690460D01*
X8480087Y-14690460D02*
X8470563Y-14680936D01*
X8470563Y-14680936D02*
X8461039Y-14661888D01*
X8461039Y-14661888D02*
X8451515Y-14623793D01*
X8451515Y-14623793D02*
X8451515Y-14576174D01*
X8451515Y-14576174D02*
X8461039Y-14538079D01*
X8461039Y-14538079D02*
X8470563Y-14519031D01*
X8470563Y-14519031D02*
X8480087Y-14509508D01*
X8480087Y-14509508D02*
X8499134Y-14499984D01*
X8651515Y-14680936D02*
X8661039Y-14690460D01*
X8661039Y-14690460D02*
X8651515Y-14699984D01*
X8651515Y-14699984D02*
X8641991Y-14690460D01*
X8641991Y-14690460D02*
X8651515Y-14680936D01*
X8651515Y-14680936D02*
X8651515Y-14699984D01*
X8784848Y-14499984D02*
X8803896Y-14499984D01*
X8803896Y-14499984D02*
X8822944Y-14509508D01*
X8822944Y-14509508D02*
X8832468Y-14519031D01*
X8832468Y-14519031D02*
X8841991Y-14538079D01*
X8841991Y-14538079D02*
X8851515Y-14576174D01*
X8851515Y-14576174D02*
X8851515Y-14623793D01*
X8851515Y-14623793D02*
X8841991Y-14661888D01*
X8841991Y-14661888D02*
X8832468Y-14680936D01*
X8832468Y-14680936D02*
X8822944Y-14690460D01*
X8822944Y-14690460D02*
X8803896Y-14699984D01*
X8803896Y-14699984D02*
X8784848Y-14699984D01*
X8784848Y-14699984D02*
X8765801Y-14690460D01*
X8765801Y-14690460D02*
X8756277Y-14680936D01*
X8756277Y-14680936D02*
X8746753Y-14661888D01*
X8746753Y-14661888D02*
X8737229Y-14623793D01*
X8737229Y-14623793D02*
X8737229Y-14576174D01*
X8737229Y-14576174D02*
X8746753Y-14538079D01*
X8746753Y-14538079D02*
X8756277Y-14519031D01*
X8756277Y-14519031D02*
X8765801Y-14509508D01*
X8765801Y-14509508D02*
X8784848Y-14499984D01*
X9022944Y-14566650D02*
X9022944Y-14699984D01*
X8975325Y-14490460D02*
X8927706Y-14633317D01*
X8927706Y-14633317D02*
X9051515Y-14633317D01*
X9108658Y-14499984D02*
X9241991Y-14499984D01*
X9241991Y-14499984D02*
X9156277Y-14699984D01*
X9308658Y-14519031D02*
X9318182Y-14509508D01*
X9318182Y-14509508D02*
X9337229Y-14499984D01*
X9337229Y-14499984D02*
X9384849Y-14499984D01*
X9384849Y-14499984D02*
X9403896Y-14509508D01*
X9403896Y-14509508D02*
X9413420Y-14519031D01*
X9413420Y-14519031D02*
X9422944Y-14538079D01*
X9422944Y-14538079D02*
X9422944Y-14557127D01*
X9422944Y-14557127D02*
X9413420Y-14585698D01*
X9413420Y-14585698D02*
X9299134Y-14699984D01*
X9299134Y-14699984D02*
X9422944Y-14699984D01*
X9499134Y-14499984D02*
X9499134Y-14538079D01*
X9575325Y-14499984D02*
X9575325Y-14538079D01*
X9870563Y-14776174D02*
X9861039Y-14766650D01*
X9861039Y-14766650D02*
X9841991Y-14738079D01*
X9841991Y-14738079D02*
X9832468Y-14719031D01*
X9832468Y-14719031D02*
X9822944Y-14690460D01*
X9822944Y-14690460D02*
X9813420Y-14642841D01*
X9813420Y-14642841D02*
X9813420Y-14604746D01*
X9813420Y-14604746D02*
X9822944Y-14557127D01*
X9822944Y-14557127D02*
X9832468Y-14528555D01*
X9832468Y-14528555D02*
X9841991Y-14509508D01*
X9841991Y-14509508D02*
X9861039Y-14480936D01*
X9861039Y-14480936D02*
X9870563Y-14471412D01*
X10051515Y-14699984D02*
X9937230Y-14699984D01*
X9994372Y-14699984D02*
X9994372Y-14499984D01*
X9994372Y-14499984D02*
X9975325Y-14528555D01*
X9975325Y-14528555D02*
X9956277Y-14547603D01*
X9956277Y-14547603D02*
X9937230Y-14557127D01*
X10289611Y-14699984D02*
X10289611Y-14499984D01*
X10375325Y-14699984D02*
X10375325Y-14595222D01*
X10375325Y-14595222D02*
X10365801Y-14576174D01*
X10365801Y-14576174D02*
X10346753Y-14566650D01*
X10346753Y-14566650D02*
X10318182Y-14566650D01*
X10318182Y-14566650D02*
X10299134Y-14576174D01*
X10299134Y-14576174D02*
X10289611Y-14585698D01*
X10499134Y-14699984D02*
X10480087Y-14690460D01*
X10480087Y-14690460D02*
X10470563Y-14680936D01*
X10470563Y-14680936D02*
X10461039Y-14661888D01*
X10461039Y-14661888D02*
X10461039Y-14604746D01*
X10461039Y-14604746D02*
X10470563Y-14585698D01*
X10470563Y-14585698D02*
X10480087Y-14576174D01*
X10480087Y-14576174D02*
X10499134Y-14566650D01*
X10499134Y-14566650D02*
X10527706Y-14566650D01*
X10527706Y-14566650D02*
X10546753Y-14576174D01*
X10546753Y-14576174D02*
X10556277Y-14585698D01*
X10556277Y-14585698D02*
X10565801Y-14604746D01*
X10565801Y-14604746D02*
X10565801Y-14661888D01*
X10565801Y-14661888D02*
X10556277Y-14680936D01*
X10556277Y-14680936D02*
X10546753Y-14690460D01*
X10546753Y-14690460D02*
X10527706Y-14699984D01*
X10527706Y-14699984D02*
X10499134Y-14699984D01*
X10680087Y-14699984D02*
X10661039Y-14690460D01*
X10661039Y-14690460D02*
X10651515Y-14671412D01*
X10651515Y-14671412D02*
X10651515Y-14499984D01*
X10832468Y-14690460D02*
X10813420Y-14699984D01*
X10813420Y-14699984D02*
X10775325Y-14699984D01*
X10775325Y-14699984D02*
X10756277Y-14690460D01*
X10756277Y-14690460D02*
X10746753Y-14671412D01*
X10746753Y-14671412D02*
X10746753Y-14595222D01*
X10746753Y-14595222D02*
X10756277Y-14576174D01*
X10756277Y-14576174D02*
X10775325Y-14566650D01*
X10775325Y-14566650D02*
X10813420Y-14566650D01*
X10813420Y-14566650D02*
X10832468Y-14576174D01*
X10832468Y-14576174D02*
X10841992Y-14595222D01*
X10841992Y-14595222D02*
X10841992Y-14614269D01*
X10841992Y-14614269D02*
X10746753Y-14633317D01*
X10908658Y-14776174D02*
X10918182Y-14766650D01*
X10918182Y-14766650D02*
X10937230Y-14738079D01*
X10937230Y-14738079D02*
X10946753Y-14719031D01*
X10946753Y-14719031D02*
X10956277Y-14690460D01*
X10956277Y-14690460D02*
X10965801Y-14642841D01*
X10965801Y-14642841D02*
X10965801Y-14604746D01*
X10965801Y-14604746D02*
X10956277Y-14557127D01*
X10956277Y-14557127D02*
X10946753Y-14528555D01*
X10946753Y-14528555D02*
X10937230Y-14509508D01*
X10937230Y-14509508D02*
X10918182Y-14480936D01*
X10918182Y-14480936D02*
X10908658Y-14471412D01*
X6195500Y-14772500D02*
X6195500Y-14972500D01*
X6095500Y-14872500D02*
X6295500Y-14872500D01*
X6546753Y-14783031D02*
X6556277Y-14773508D01*
X6556277Y-14773508D02*
X6575324Y-14763984D01*
X6575324Y-14763984D02*
X6622943Y-14763984D01*
X6622943Y-14763984D02*
X6641991Y-14773508D01*
X6641991Y-14773508D02*
X6651515Y-14783031D01*
X6651515Y-14783031D02*
X6661039Y-14802079D01*
X6661039Y-14802079D02*
X6661039Y-14821127D01*
X6661039Y-14821127D02*
X6651515Y-14849698D01*
X6651515Y-14849698D02*
X6537229Y-14963984D01*
X6537229Y-14963984D02*
X6661039Y-14963984D01*
X6746753Y-14944936D02*
X6756277Y-14954460D01*
X6756277Y-14954460D02*
X6746753Y-14963984D01*
X6746753Y-14963984D02*
X6737229Y-14954460D01*
X6737229Y-14954460D02*
X6746753Y-14944936D01*
X6746753Y-14944936D02*
X6746753Y-14963984D01*
X6927705Y-14763984D02*
X6889610Y-14763984D01*
X6889610Y-14763984D02*
X6870562Y-14773508D01*
X6870562Y-14773508D02*
X6861039Y-14783031D01*
X6861039Y-14783031D02*
X6841991Y-14811603D01*
X6841991Y-14811603D02*
X6832467Y-14849698D01*
X6832467Y-14849698D02*
X6832467Y-14925888D01*
X6832467Y-14925888D02*
X6841991Y-14944936D01*
X6841991Y-14944936D02*
X6851515Y-14954460D01*
X6851515Y-14954460D02*
X6870562Y-14963984D01*
X6870562Y-14963984D02*
X6908658Y-14963984D01*
X6908658Y-14963984D02*
X6927705Y-14954460D01*
X6927705Y-14954460D02*
X6937229Y-14944936D01*
X6937229Y-14944936D02*
X6946753Y-14925888D01*
X6946753Y-14925888D02*
X6946753Y-14878269D01*
X6946753Y-14878269D02*
X6937229Y-14859222D01*
X6937229Y-14859222D02*
X6927705Y-14849698D01*
X6927705Y-14849698D02*
X6908658Y-14840174D01*
X6908658Y-14840174D02*
X6870562Y-14840174D01*
X6870562Y-14840174D02*
X6851515Y-14849698D01*
X6851515Y-14849698D02*
X6841991Y-14859222D01*
X6841991Y-14859222D02*
X6832467Y-14878269D01*
X7070562Y-14763984D02*
X7089610Y-14763984D01*
X7089610Y-14763984D02*
X7108658Y-14773508D01*
X7108658Y-14773508D02*
X7118182Y-14783031D01*
X7118182Y-14783031D02*
X7127705Y-14802079D01*
X7127705Y-14802079D02*
X7137229Y-14840174D01*
X7137229Y-14840174D02*
X7137229Y-14887793D01*
X7137229Y-14887793D02*
X7127705Y-14925888D01*
X7127705Y-14925888D02*
X7118182Y-14944936D01*
X7118182Y-14944936D02*
X7108658Y-14954460D01*
X7108658Y-14954460D02*
X7089610Y-14963984D01*
X7089610Y-14963984D02*
X7070562Y-14963984D01*
X7070562Y-14963984D02*
X7051515Y-14954460D01*
X7051515Y-14954460D02*
X7041991Y-14944936D01*
X7041991Y-14944936D02*
X7032467Y-14925888D01*
X7032467Y-14925888D02*
X7022943Y-14887793D01*
X7022943Y-14887793D02*
X7022943Y-14840174D01*
X7022943Y-14840174D02*
X7032467Y-14802079D01*
X7032467Y-14802079D02*
X7041991Y-14783031D01*
X7041991Y-14783031D02*
X7051515Y-14773508D01*
X7051515Y-14773508D02*
X7070562Y-14763984D01*
X7261039Y-14763984D02*
X7280086Y-14763984D01*
X7280086Y-14763984D02*
X7299134Y-14773508D01*
X7299134Y-14773508D02*
X7308658Y-14783031D01*
X7308658Y-14783031D02*
X7318182Y-14802079D01*
X7318182Y-14802079D02*
X7327705Y-14840174D01*
X7327705Y-14840174D02*
X7327705Y-14887793D01*
X7327705Y-14887793D02*
X7318182Y-14925888D01*
X7318182Y-14925888D02*
X7308658Y-14944936D01*
X7308658Y-14944936D02*
X7299134Y-14954460D01*
X7299134Y-14954460D02*
X7280086Y-14963984D01*
X7280086Y-14963984D02*
X7261039Y-14963984D01*
X7261039Y-14963984D02*
X7241991Y-14954460D01*
X7241991Y-14954460D02*
X7232467Y-14944936D01*
X7232467Y-14944936D02*
X7222943Y-14925888D01*
X7222943Y-14925888D02*
X7213420Y-14887793D01*
X7213420Y-14887793D02*
X7213420Y-14840174D01*
X7213420Y-14840174D02*
X7222943Y-14802079D01*
X7222943Y-14802079D02*
X7232467Y-14783031D01*
X7232467Y-14783031D02*
X7241991Y-14773508D01*
X7241991Y-14773508D02*
X7261039Y-14763984D01*
X7413420Y-14963984D02*
X7413420Y-14830650D01*
X7413420Y-14849698D02*
X7422943Y-14840174D01*
X7422943Y-14840174D02*
X7441991Y-14830650D01*
X7441991Y-14830650D02*
X7470563Y-14830650D01*
X7470563Y-14830650D02*
X7489610Y-14840174D01*
X7489610Y-14840174D02*
X7499134Y-14859222D01*
X7499134Y-14859222D02*
X7499134Y-14963984D01*
X7499134Y-14859222D02*
X7508658Y-14840174D01*
X7508658Y-14840174D02*
X7527705Y-14830650D01*
X7527705Y-14830650D02*
X7556277Y-14830650D01*
X7556277Y-14830650D02*
X7575324Y-14840174D01*
X7575324Y-14840174D02*
X7584848Y-14859222D01*
X7584848Y-14859222D02*
X7584848Y-14963984D01*
X7680086Y-14963984D02*
X7680086Y-14830650D01*
X7680086Y-14849698D02*
X7689610Y-14840174D01*
X7689610Y-14840174D02*
X7708658Y-14830650D01*
X7708658Y-14830650D02*
X7737229Y-14830650D01*
X7737229Y-14830650D02*
X7756277Y-14840174D01*
X7756277Y-14840174D02*
X7765801Y-14859222D01*
X7765801Y-14859222D02*
X7765801Y-14963984D01*
X7765801Y-14859222D02*
X7775324Y-14840174D01*
X7775324Y-14840174D02*
X7794372Y-14830650D01*
X7794372Y-14830650D02*
X7822943Y-14830650D01*
X7822943Y-14830650D02*
X7841991Y-14840174D01*
X7841991Y-14840174D02*
X7851515Y-14859222D01*
X7851515Y-14859222D02*
X7851515Y-14963984D01*
X8241991Y-14754460D02*
X8070563Y-15011603D01*
X8499134Y-14763984D02*
X8518182Y-14763984D01*
X8518182Y-14763984D02*
X8537229Y-14773508D01*
X8537229Y-14773508D02*
X8546753Y-14783031D01*
X8546753Y-14783031D02*
X8556277Y-14802079D01*
X8556277Y-14802079D02*
X8565801Y-14840174D01*
X8565801Y-14840174D02*
X8565801Y-14887793D01*
X8565801Y-14887793D02*
X8556277Y-14925888D01*
X8556277Y-14925888D02*
X8546753Y-14944936D01*
X8546753Y-14944936D02*
X8537229Y-14954460D01*
X8537229Y-14954460D02*
X8518182Y-14963984D01*
X8518182Y-14963984D02*
X8499134Y-14963984D01*
X8499134Y-14963984D02*
X8480087Y-14954460D01*
X8480087Y-14954460D02*
X8470563Y-14944936D01*
X8470563Y-14944936D02*
X8461039Y-14925888D01*
X8461039Y-14925888D02*
X8451515Y-14887793D01*
X8451515Y-14887793D02*
X8451515Y-14840174D01*
X8451515Y-14840174D02*
X8461039Y-14802079D01*
X8461039Y-14802079D02*
X8470563Y-14783031D01*
X8470563Y-14783031D02*
X8480087Y-14773508D01*
X8480087Y-14773508D02*
X8499134Y-14763984D01*
X8651515Y-14944936D02*
X8661039Y-14954460D01*
X8661039Y-14954460D02*
X8651515Y-14963984D01*
X8651515Y-14963984D02*
X8641991Y-14954460D01*
X8641991Y-14954460D02*
X8651515Y-14944936D01*
X8651515Y-14944936D02*
X8651515Y-14963984D01*
X8851515Y-14963984D02*
X8737229Y-14963984D01*
X8794372Y-14963984D02*
X8794372Y-14763984D01*
X8794372Y-14763984D02*
X8775325Y-14792555D01*
X8775325Y-14792555D02*
X8756277Y-14811603D01*
X8756277Y-14811603D02*
X8737229Y-14821127D01*
X8975325Y-14763984D02*
X8994372Y-14763984D01*
X8994372Y-14763984D02*
X9013420Y-14773508D01*
X9013420Y-14773508D02*
X9022944Y-14783031D01*
X9022944Y-14783031D02*
X9032468Y-14802079D01*
X9032468Y-14802079D02*
X9041991Y-14840174D01*
X9041991Y-14840174D02*
X9041991Y-14887793D01*
X9041991Y-14887793D02*
X9032468Y-14925888D01*
X9032468Y-14925888D02*
X9022944Y-14944936D01*
X9022944Y-14944936D02*
X9013420Y-14954460D01*
X9013420Y-14954460D02*
X8994372Y-14963984D01*
X8994372Y-14963984D02*
X8975325Y-14963984D01*
X8975325Y-14963984D02*
X8956277Y-14954460D01*
X8956277Y-14954460D02*
X8946753Y-14944936D01*
X8946753Y-14944936D02*
X8937229Y-14925888D01*
X8937229Y-14925888D02*
X8927706Y-14887793D01*
X8927706Y-14887793D02*
X8927706Y-14840174D01*
X8927706Y-14840174D02*
X8937229Y-14802079D01*
X8937229Y-14802079D02*
X8946753Y-14783031D01*
X8946753Y-14783031D02*
X8956277Y-14773508D01*
X8956277Y-14773508D02*
X8975325Y-14763984D01*
X9118182Y-14783031D02*
X9127706Y-14773508D01*
X9127706Y-14773508D02*
X9146753Y-14763984D01*
X9146753Y-14763984D02*
X9194372Y-14763984D01*
X9194372Y-14763984D02*
X9213420Y-14773508D01*
X9213420Y-14773508D02*
X9222944Y-14783031D01*
X9222944Y-14783031D02*
X9232468Y-14802079D01*
X9232468Y-14802079D02*
X9232468Y-14821127D01*
X9232468Y-14821127D02*
X9222944Y-14849698D01*
X9222944Y-14849698D02*
X9108658Y-14963984D01*
X9108658Y-14963984D02*
X9232468Y-14963984D01*
X9403896Y-14830650D02*
X9403896Y-14963984D01*
X9356277Y-14754460D02*
X9308658Y-14897317D01*
X9308658Y-14897317D02*
X9432468Y-14897317D01*
X9499134Y-14763984D02*
X9499134Y-14802079D01*
X9575325Y-14763984D02*
X9575325Y-14802079D01*
X9870563Y-15040174D02*
X9861039Y-15030650D01*
X9861039Y-15030650D02*
X9841991Y-15002079D01*
X9841991Y-15002079D02*
X9832468Y-14983031D01*
X9832468Y-14983031D02*
X9822944Y-14954460D01*
X9822944Y-14954460D02*
X9813420Y-14906841D01*
X9813420Y-14906841D02*
X9813420Y-14868746D01*
X9813420Y-14868746D02*
X9822944Y-14821127D01*
X9822944Y-14821127D02*
X9832468Y-14792555D01*
X9832468Y-14792555D02*
X9841991Y-14773508D01*
X9841991Y-14773508D02*
X9861039Y-14744936D01*
X9861039Y-14744936D02*
X9870563Y-14735412D01*
X10032468Y-14830650D02*
X10032468Y-14963984D01*
X9984849Y-14754460D02*
X9937230Y-14897317D01*
X9937230Y-14897317D02*
X10061039Y-14897317D01*
X10289611Y-14963984D02*
X10289611Y-14763984D01*
X10375325Y-14963984D02*
X10375325Y-14859222D01*
X10375325Y-14859222D02*
X10365801Y-14840174D01*
X10365801Y-14840174D02*
X10346753Y-14830650D01*
X10346753Y-14830650D02*
X10318182Y-14830650D01*
X10318182Y-14830650D02*
X10299134Y-14840174D01*
X10299134Y-14840174D02*
X10289611Y-14849698D01*
X10499134Y-14963984D02*
X10480087Y-14954460D01*
X10480087Y-14954460D02*
X10470563Y-14944936D01*
X10470563Y-14944936D02*
X10461039Y-14925888D01*
X10461039Y-14925888D02*
X10461039Y-14868746D01*
X10461039Y-14868746D02*
X10470563Y-14849698D01*
X10470563Y-14849698D02*
X10480087Y-14840174D01*
X10480087Y-14840174D02*
X10499134Y-14830650D01*
X10499134Y-14830650D02*
X10527706Y-14830650D01*
X10527706Y-14830650D02*
X10546753Y-14840174D01*
X10546753Y-14840174D02*
X10556277Y-14849698D01*
X10556277Y-14849698D02*
X10565801Y-14868746D01*
X10565801Y-14868746D02*
X10565801Y-14925888D01*
X10565801Y-14925888D02*
X10556277Y-14944936D01*
X10556277Y-14944936D02*
X10546753Y-14954460D01*
X10546753Y-14954460D02*
X10527706Y-14963984D01*
X10527706Y-14963984D02*
X10499134Y-14963984D01*
X10680087Y-14963984D02*
X10661039Y-14954460D01*
X10661039Y-14954460D02*
X10651515Y-14935412D01*
X10651515Y-14935412D02*
X10651515Y-14763984D01*
X10832468Y-14954460D02*
X10813420Y-14963984D01*
X10813420Y-14963984D02*
X10775325Y-14963984D01*
X10775325Y-14963984D02*
X10756277Y-14954460D01*
X10756277Y-14954460D02*
X10746753Y-14935412D01*
X10746753Y-14935412D02*
X10746753Y-14859222D01*
X10746753Y-14859222D02*
X10756277Y-14840174D01*
X10756277Y-14840174D02*
X10775325Y-14830650D01*
X10775325Y-14830650D02*
X10813420Y-14830650D01*
X10813420Y-14830650D02*
X10832468Y-14840174D01*
X10832468Y-14840174D02*
X10841992Y-14859222D01*
X10841992Y-14859222D02*
X10841992Y-14878269D01*
X10841992Y-14878269D02*
X10746753Y-14897317D01*
X10918182Y-14954460D02*
X10937230Y-14963984D01*
X10937230Y-14963984D02*
X10975325Y-14963984D01*
X10975325Y-14963984D02*
X10994373Y-14954460D01*
X10994373Y-14954460D02*
X11003896Y-14935412D01*
X11003896Y-14935412D02*
X11003896Y-14925888D01*
X11003896Y-14925888D02*
X10994373Y-14906841D01*
X10994373Y-14906841D02*
X10975325Y-14897317D01*
X10975325Y-14897317D02*
X10946753Y-14897317D01*
X10946753Y-14897317D02*
X10927706Y-14887793D01*
X10927706Y-14887793D02*
X10918182Y-14868746D01*
X10918182Y-14868746D02*
X10918182Y-14859222D01*
X10918182Y-14859222D02*
X10927706Y-14840174D01*
X10927706Y-14840174D02*
X10946753Y-14830650D01*
X10946753Y-14830650D02*
X10975325Y-14830650D01*
X10975325Y-14830650D02*
X10994373Y-14840174D01*
X11070563Y-15040174D02*
X11080087Y-15030650D01*
X11080087Y-15030650D02*
X11099134Y-15002079D01*
X11099134Y-15002079D02*
X11108658Y-14983031D01*
X11108658Y-14983031D02*
X11118182Y-14954460D01*
X11118182Y-14954460D02*
X11127706Y-14906841D01*
X11127706Y-14906841D02*
X11127706Y-14868746D01*
X11127706Y-14868746D02*
X11118182Y-14821127D01*
X11118182Y-14821127D02*
X11108658Y-14792555D01*
X11108658Y-14792555D02*
X11099134Y-14773508D01*
X11099134Y-14773508D02*
X11080087Y-14744936D01*
X11080087Y-14744936D02*
X11070563Y-14735412D01*
M02*
