%TF.GenerationSoftware,KiCad,Pcbnew,8.0.1*%
%TF.CreationDate,2024-07-18T17:37:03+01:00*%
%TF.ProjectId,patch-antenna-board,70617463-682d-4616-9e74-656e6e612d62,rev?*%
%TF.SameCoordinates,Original*%
%TF.FileFunction,Legend,Bot*%
%TF.FilePolarity,Positive*%
%FSLAX46Y46*%
G04 Gerber Fmt 4.6, Leading zero omitted, Abs format (unit mm)*
G04 Created by KiCad (PCBNEW 8.0.1) date 2024-07-18 17:37:03*
%MOMM*%
%LPD*%
G01*
G04 APERTURE LIST*
%ADD10C,0.400000*%
%ADD11C,0.200000*%
%ADD12C,0.127000*%
%ADD13C,0.150000*%
%ADD14C,1.600000*%
%ADD15C,3.600000*%
G04 APERTURE END LIST*
D10*
X117142858Y-133112057D02*
X117142858Y-130112057D01*
X117142858Y-130112057D02*
X116380953Y-130112057D01*
X116380953Y-130112057D02*
X116190477Y-130254914D01*
X116190477Y-130254914D02*
X116095239Y-130397771D01*
X116095239Y-130397771D02*
X116000001Y-130683485D01*
X116000001Y-130683485D02*
X116000001Y-131112057D01*
X116000001Y-131112057D02*
X116095239Y-131397771D01*
X116095239Y-131397771D02*
X116190477Y-131540628D01*
X116190477Y-131540628D02*
X116380953Y-131683485D01*
X116380953Y-131683485D02*
X117142858Y-131683485D01*
X115238096Y-132254914D02*
X114285715Y-132254914D01*
X115428572Y-133112057D02*
X114761906Y-130112057D01*
X114761906Y-130112057D02*
X114095239Y-133112057D01*
X113714286Y-130112057D02*
X112571429Y-130112057D01*
X113142858Y-133112057D02*
X113142858Y-130112057D01*
X110761905Y-132826342D02*
X110857143Y-132969200D01*
X110857143Y-132969200D02*
X111142857Y-133112057D01*
X111142857Y-133112057D02*
X111333333Y-133112057D01*
X111333333Y-133112057D02*
X111619048Y-132969200D01*
X111619048Y-132969200D02*
X111809524Y-132683485D01*
X111809524Y-132683485D02*
X111904762Y-132397771D01*
X111904762Y-132397771D02*
X112000000Y-131826342D01*
X112000000Y-131826342D02*
X112000000Y-131397771D01*
X112000000Y-131397771D02*
X111904762Y-130826342D01*
X111904762Y-130826342D02*
X111809524Y-130540628D01*
X111809524Y-130540628D02*
X111619048Y-130254914D01*
X111619048Y-130254914D02*
X111333333Y-130112057D01*
X111333333Y-130112057D02*
X111142857Y-130112057D01*
X111142857Y-130112057D02*
X110857143Y-130254914D01*
X110857143Y-130254914D02*
X110761905Y-130397771D01*
X109904762Y-133112057D02*
X109904762Y-130112057D01*
X109904762Y-131540628D02*
X108761905Y-131540628D01*
X108761905Y-133112057D02*
X108761905Y-130112057D01*
X106380952Y-132254914D02*
X105428571Y-132254914D01*
X106571428Y-133112057D02*
X105904762Y-130112057D01*
X105904762Y-130112057D02*
X105238095Y-133112057D01*
X104571428Y-133112057D02*
X104571428Y-130112057D01*
X104571428Y-130112057D02*
X103428571Y-133112057D01*
X103428571Y-133112057D02*
X103428571Y-130112057D01*
X102761904Y-130112057D02*
X101619047Y-130112057D01*
X102190476Y-133112057D02*
X102190476Y-130112057D01*
X100952380Y-131540628D02*
X100285713Y-131540628D01*
X99999999Y-133112057D02*
X100952380Y-133112057D01*
X100952380Y-133112057D02*
X100952380Y-130112057D01*
X100952380Y-130112057D02*
X99999999Y-130112057D01*
X99142856Y-133112057D02*
X99142856Y-130112057D01*
X99142856Y-130112057D02*
X97999999Y-133112057D01*
X97999999Y-133112057D02*
X97999999Y-130112057D01*
X97047618Y-133112057D02*
X97047618Y-130112057D01*
X97047618Y-130112057D02*
X95904761Y-133112057D01*
X95904761Y-133112057D02*
X95904761Y-130112057D01*
X95047618Y-132254914D02*
X94095237Y-132254914D01*
X95238094Y-133112057D02*
X94571428Y-130112057D01*
X94571428Y-130112057D02*
X93904761Y-133112057D01*
X91047617Y-131540628D02*
X90761903Y-131683485D01*
X90761903Y-131683485D02*
X90666665Y-131826342D01*
X90666665Y-131826342D02*
X90571427Y-132112057D01*
X90571427Y-132112057D02*
X90571427Y-132540628D01*
X90571427Y-132540628D02*
X90666665Y-132826342D01*
X90666665Y-132826342D02*
X90761903Y-132969200D01*
X90761903Y-132969200D02*
X90952379Y-133112057D01*
X90952379Y-133112057D02*
X91714284Y-133112057D01*
X91714284Y-133112057D02*
X91714284Y-130112057D01*
X91714284Y-130112057D02*
X91047617Y-130112057D01*
X91047617Y-130112057D02*
X90857141Y-130254914D01*
X90857141Y-130254914D02*
X90761903Y-130397771D01*
X90761903Y-130397771D02*
X90666665Y-130683485D01*
X90666665Y-130683485D02*
X90666665Y-130969200D01*
X90666665Y-130969200D02*
X90761903Y-131254914D01*
X90761903Y-131254914D02*
X90857141Y-131397771D01*
X90857141Y-131397771D02*
X91047617Y-131540628D01*
X91047617Y-131540628D02*
X91714284Y-131540628D01*
X89333332Y-130112057D02*
X88952379Y-130112057D01*
X88952379Y-130112057D02*
X88761903Y-130254914D01*
X88761903Y-130254914D02*
X88571427Y-130540628D01*
X88571427Y-130540628D02*
X88476189Y-131112057D01*
X88476189Y-131112057D02*
X88476189Y-132112057D01*
X88476189Y-132112057D02*
X88571427Y-132683485D01*
X88571427Y-132683485D02*
X88761903Y-132969200D01*
X88761903Y-132969200D02*
X88952379Y-133112057D01*
X88952379Y-133112057D02*
X89333332Y-133112057D01*
X89333332Y-133112057D02*
X89523808Y-132969200D01*
X89523808Y-132969200D02*
X89714284Y-132683485D01*
X89714284Y-132683485D02*
X89809522Y-132112057D01*
X89809522Y-132112057D02*
X89809522Y-131112057D01*
X89809522Y-131112057D02*
X89714284Y-130540628D01*
X89714284Y-130540628D02*
X89523808Y-130254914D01*
X89523808Y-130254914D02*
X89333332Y-130112057D01*
X87714284Y-132254914D02*
X86761903Y-132254914D01*
X87904760Y-133112057D02*
X87238094Y-130112057D01*
X87238094Y-130112057D02*
X86571427Y-133112057D01*
X84761903Y-133112057D02*
X85428570Y-131683485D01*
X85904760Y-133112057D02*
X85904760Y-130112057D01*
X85904760Y-130112057D02*
X85142855Y-130112057D01*
X85142855Y-130112057D02*
X84952379Y-130254914D01*
X84952379Y-130254914D02*
X84857141Y-130397771D01*
X84857141Y-130397771D02*
X84761903Y-130683485D01*
X84761903Y-130683485D02*
X84761903Y-131112057D01*
X84761903Y-131112057D02*
X84857141Y-131397771D01*
X84857141Y-131397771D02*
X84952379Y-131540628D01*
X84952379Y-131540628D02*
X85142855Y-131683485D01*
X85142855Y-131683485D02*
X85904760Y-131683485D01*
X83904760Y-133112057D02*
X83904760Y-130112057D01*
X83904760Y-130112057D02*
X83428570Y-130112057D01*
X83428570Y-130112057D02*
X83142855Y-130254914D01*
X83142855Y-130254914D02*
X82952379Y-130540628D01*
X82952379Y-130540628D02*
X82857141Y-130826342D01*
X82857141Y-130826342D02*
X82761903Y-131397771D01*
X82761903Y-131397771D02*
X82761903Y-131826342D01*
X82761903Y-131826342D02*
X82857141Y-132397771D01*
X82857141Y-132397771D02*
X82952379Y-132683485D01*
X82952379Y-132683485D02*
X83142855Y-132969200D01*
X83142855Y-132969200D02*
X83428570Y-133112057D01*
X83428570Y-133112057D02*
X83904760Y-133112057D01*
D11*
X78571428Y-134893790D02*
X78971428Y-134131885D01*
X79257142Y-134893790D02*
X79257142Y-133293790D01*
X79257142Y-133293790D02*
X78799999Y-133293790D01*
X78799999Y-133293790D02*
X78685714Y-133369980D01*
X78685714Y-133369980D02*
X78628571Y-133446171D01*
X78628571Y-133446171D02*
X78571428Y-133598552D01*
X78571428Y-133598552D02*
X78571428Y-133827123D01*
X78571428Y-133827123D02*
X78628571Y-133979504D01*
X78628571Y-133979504D02*
X78685714Y-134055695D01*
X78685714Y-134055695D02*
X78799999Y-134131885D01*
X78799999Y-134131885D02*
X79257142Y-134131885D01*
X78057142Y-134055695D02*
X77657142Y-134055695D01*
X77485714Y-134893790D02*
X78057142Y-134893790D01*
X78057142Y-134893790D02*
X78057142Y-133293790D01*
X78057142Y-133293790D02*
X77485714Y-133293790D01*
X77142857Y-133293790D02*
X76742857Y-134893790D01*
X76742857Y-134893790D02*
X76342857Y-133293790D01*
X74400000Y-134893790D02*
X75085714Y-134893790D01*
X74742857Y-134893790D02*
X74742857Y-133293790D01*
X74742857Y-133293790D02*
X74857143Y-133522361D01*
X74857143Y-133522361D02*
X74971428Y-133674742D01*
X74971428Y-133674742D02*
X75085714Y-133750933D01*
X73885714Y-134741409D02*
X73828571Y-134817600D01*
X73828571Y-134817600D02*
X73885714Y-134893790D01*
X73885714Y-134893790D02*
X73942857Y-134817600D01*
X73942857Y-134817600D02*
X73885714Y-134741409D01*
X73885714Y-134741409D02*
X73885714Y-134893790D01*
X73085714Y-133293790D02*
X72971428Y-133293790D01*
X72971428Y-133293790D02*
X72857142Y-133369980D01*
X72857142Y-133369980D02*
X72800000Y-133446171D01*
X72800000Y-133446171D02*
X72742857Y-133598552D01*
X72742857Y-133598552D02*
X72685714Y-133903314D01*
X72685714Y-133903314D02*
X72685714Y-134284266D01*
X72685714Y-134284266D02*
X72742857Y-134589028D01*
X72742857Y-134589028D02*
X72800000Y-134741409D01*
X72800000Y-134741409D02*
X72857142Y-134817600D01*
X72857142Y-134817600D02*
X72971428Y-134893790D01*
X72971428Y-134893790D02*
X73085714Y-134893790D01*
X73085714Y-134893790D02*
X73200000Y-134817600D01*
X73200000Y-134817600D02*
X73257142Y-134741409D01*
X73257142Y-134741409D02*
X73314285Y-134589028D01*
X73314285Y-134589028D02*
X73371428Y-134284266D01*
X73371428Y-134284266D02*
X73371428Y-133903314D01*
X73371428Y-133903314D02*
X73314285Y-133598552D01*
X73314285Y-133598552D02*
X73257142Y-133446171D01*
X73257142Y-133446171D02*
X73200000Y-133369980D01*
X73200000Y-133369980D02*
X73085714Y-133293790D01*
D12*
%TO.C,ANT1*%
X120500000Y-116500000D02*
X119000000Y-118000000D01*
X119000000Y-118000000D02*
X86000000Y-118000000D01*
X84500000Y-116500000D02*
X86000000Y-118000000D01*
X120500000Y-83500000D02*
X120500000Y-116500000D01*
X109000000Y-112550000D02*
X91000000Y-112550000D01*
X112550000Y-91000000D02*
X112550000Y-109000000D01*
X87450000Y-109000000D02*
X87450000Y-91000000D01*
X91000000Y-87450000D02*
X109000000Y-87450000D01*
X119000000Y-82000000D02*
X120500000Y-83500000D01*
X84500000Y-116500000D02*
X84500000Y-83500000D01*
X86000000Y-82000000D02*
X119000000Y-82000000D01*
X84500000Y-83500000D02*
X86000000Y-82000000D01*
X112550000Y-109000000D02*
G75*
G02*
X109000000Y-112550000I-3550000J0D01*
G01*
X91000000Y-112550000D02*
G75*
G02*
X87450000Y-109000000I0J3550000D01*
G01*
X109000000Y-87450000D02*
G75*
G02*
X112550000Y-91000000I0J-3550000D01*
G01*
X87450000Y-91000000D02*
G75*
G02*
X91000000Y-87450000I3550000J0D01*
G01*
%TD*%
%LPC*%
D13*
X69500000Y-135500000D02*
X130500000Y-135500000D01*
X130500000Y-137500000D01*
X69500000Y-137500000D01*
X69500000Y-135500000D01*
G36*
X69500000Y-135500000D02*
G01*
X130500000Y-135500000D01*
X130500000Y-137500000D01*
X69500000Y-137500000D01*
X69500000Y-135500000D01*
G37*
X135500000Y-69500000D02*
X137500000Y-69500000D01*
X137500000Y-130500000D01*
X135500000Y-130500000D01*
X135500000Y-69500000D01*
G36*
X135500000Y-69500000D02*
G01*
X137500000Y-69500000D01*
X137500000Y-130500000D01*
X135500000Y-130500000D01*
X135500000Y-69500000D01*
G37*
X62500000Y-69500000D02*
X64500000Y-69500000D01*
X64500000Y-130500000D01*
X62500000Y-130500000D01*
X62500000Y-69500000D01*
G36*
X62500000Y-69500000D02*
G01*
X64500000Y-69500000D01*
X64500000Y-130500000D01*
X62500000Y-130500000D01*
X62500000Y-69500000D01*
G37*
X130500000Y-68500000D02*
X132000000Y-69500000D01*
X137500000Y-69500000D01*
X137500000Y-72000000D01*
X131500000Y-72000000D01*
X130700000Y-71800000D01*
X130200000Y-71600000D01*
X129600000Y-71200000D01*
X129100000Y-70800000D01*
X128700000Y-70300000D01*
X128500000Y-69900000D01*
X128500000Y-62500000D01*
X130500000Y-62500000D01*
X130500000Y-68500000D01*
G36*
X130500000Y-68500000D02*
G01*
X132000000Y-69500000D01*
X137500000Y-69500000D01*
X137500000Y-72000000D01*
X131500000Y-72000000D01*
X130700000Y-71800000D01*
X130200000Y-71600000D01*
X129600000Y-71200000D01*
X129100000Y-70800000D01*
X128700000Y-70300000D01*
X128500000Y-69900000D01*
X128500000Y-62500000D01*
X130500000Y-62500000D01*
X130500000Y-68500000D01*
G37*
X72000000Y-68500000D02*
X71800000Y-69300000D01*
X71600000Y-69800000D01*
X71200000Y-70400000D01*
X70800000Y-70900000D01*
X70300000Y-71300000D01*
X69900000Y-71500000D01*
X62500000Y-71500000D01*
X62500000Y-69500000D01*
X68500000Y-69500000D01*
X69500000Y-68000000D01*
X69500000Y-62500000D01*
X72000000Y-62500000D01*
X72000000Y-68500000D01*
G36*
X72000000Y-68500000D02*
G01*
X71800000Y-69300000D01*
X71600000Y-69800000D01*
X71200000Y-70400000D01*
X70800000Y-70900000D01*
X70300000Y-71300000D01*
X69900000Y-71500000D01*
X62500000Y-71500000D01*
X62500000Y-69500000D01*
X68500000Y-69500000D01*
X69500000Y-68000000D01*
X69500000Y-62500000D01*
X72000000Y-62500000D01*
X72000000Y-68500000D01*
G37*
X69300000Y-128200000D02*
X69800000Y-128400000D01*
X70400000Y-128800000D01*
X70900000Y-129200000D01*
X71300000Y-129700000D01*
X71500000Y-130100000D01*
X71500000Y-137500000D01*
X69500000Y-137500000D01*
X69500000Y-131500000D01*
X68000000Y-130500000D01*
X62500000Y-130500000D01*
X62500000Y-128000000D01*
X68500000Y-128000000D01*
X69300000Y-128200000D01*
G36*
X69300000Y-128200000D02*
G01*
X69800000Y-128400000D01*
X70400000Y-128800000D01*
X70900000Y-129200000D01*
X71300000Y-129700000D01*
X71500000Y-130100000D01*
X71500000Y-137500000D01*
X69500000Y-137500000D01*
X69500000Y-131500000D01*
X68000000Y-130500000D01*
X62500000Y-130500000D01*
X62500000Y-128000000D01*
X68500000Y-128000000D01*
X69300000Y-128200000D01*
G37*
X69500000Y-62500000D02*
X130500000Y-62500000D01*
X130500000Y-64500000D01*
X69500000Y-64500000D01*
X69500000Y-62500000D01*
G36*
X69500000Y-62500000D02*
G01*
X130500000Y-62500000D01*
X130500000Y-64500000D01*
X69500000Y-64500000D01*
X69500000Y-62500000D01*
G37*
X137500000Y-130500000D02*
X131500000Y-130500000D01*
X130500000Y-132000000D01*
X130500000Y-137500000D01*
X128000000Y-137500000D01*
X128000000Y-131500000D01*
X128200000Y-130700000D01*
X128400000Y-130200000D01*
X128800000Y-129600000D01*
X129200000Y-129100000D01*
X129700000Y-128700000D01*
X130100000Y-128500000D01*
X137500000Y-128500000D01*
X137500000Y-130500000D01*
G36*
X137500000Y-130500000D02*
G01*
X131500000Y-130500000D01*
X130500000Y-132000000D01*
X130500000Y-137500000D01*
X128000000Y-137500000D01*
X128000000Y-131500000D01*
X128200000Y-130700000D01*
X128400000Y-130200000D01*
X128800000Y-129600000D01*
X129200000Y-129100000D01*
X129700000Y-128700000D01*
X130100000Y-128500000D01*
X137500000Y-128500000D01*
X137500000Y-130500000D01*
G37*
D14*
%TO.C,ANT1*%
X97500000Y-100000000D03*
%TD*%
D15*
%TO.C,H1*%
X70000000Y-125000000D03*
%TD*%
%TO.C,H2*%
X70000000Y-75000000D03*
%TD*%
%TO.C,H3*%
X130000000Y-75000000D03*
%TD*%
%TO.C,H4*%
X130000000Y-125000000D03*
%TD*%
%LPD*%
M02*
