%TF.GenerationSoftware,KiCad,Pcbnew,8.0.1*%
%TF.CreationDate,2024-07-18T17:37:03+01:00*%
%TF.ProjectId,patch-antenna-board,70617463-682d-4616-9e74-656e6e612d62,rev?*%
%TF.SameCoordinates,Original*%
%TF.FileFunction,Legend,Top*%
%TF.FilePolarity,Positive*%
%FSLAX46Y46*%
G04 Gerber Fmt 4.6, Leading zero omitted, Abs format (unit mm)*
G04 Created by KiCad (PCBNEW 8.0.1) date 2024-07-18 17:37:03*
%MOMM*%
%LPD*%
G01*
G04 APERTURE LIST*
G04 Aperture macros list*
%AMRoundRect*
0 Rectangle with rounded corners*
0 $1 Rounding radius*
0 $2 $3 $4 $5 $6 $7 $8 $9 X,Y pos of 4 corners*
0 Add a 4 corners polygon primitive as box body*
4,1,4,$2,$3,$4,$5,$6,$7,$8,$9,$2,$3,0*
0 Add four circle primitives for the rounded corners*
1,1,$1+$1,$2,$3*
1,1,$1+$1,$4,$5*
1,1,$1+$1,$6,$7*
1,1,$1+$1,$8,$9*
0 Add four rect primitives between the rounded corners*
20,1,$1+$1,$2,$3,$4,$5,0*
20,1,$1+$1,$4,$5,$6,$7,0*
20,1,$1+$1,$6,$7,$8,$9,0*
20,1,$1+$1,$8,$9,$2,$3,0*%
G04 Aperture macros list end*
%ADD10C,0.150000*%
%ADD11C,0.120000*%
%ADD12RoundRect,0.224390X0.475610X-0.235610X0.475610X0.235610X-0.475610X0.235610X-0.475610X-0.235610X0*%
%ADD13RoundRect,0.224390X-0.235610X-0.475610X0.235610X-0.475610X0.235610X0.475610X-0.235610X0.475610X0*%
%ADD14R,1.000000X1.000000*%
%ADD15R,2.200000X1.050000*%
%ADD16C,1.600000*%
%ADD17C,2.500000*%
%ADD18C,3.600000*%
G04 APERTURE END LIST*
D10*
X99000000Y-100000000D02*
G75*
G02*
X96000000Y-100000000I-1500000J0D01*
G01*
X96000000Y-100000000D02*
G75*
G02*
X99000000Y-100000000I1500000J0D01*
G01*
X124666666Y-95954819D02*
X124666666Y-96669104D01*
X124666666Y-96669104D02*
X124619047Y-96811961D01*
X124619047Y-96811961D02*
X124523809Y-96907200D01*
X124523809Y-96907200D02*
X124380952Y-96954819D01*
X124380952Y-96954819D02*
X124285714Y-96954819D01*
X125666666Y-96954819D02*
X125095238Y-96954819D01*
X125380952Y-96954819D02*
X125380952Y-95954819D01*
X125380952Y-95954819D02*
X125285714Y-96097676D01*
X125285714Y-96097676D02*
X125190476Y-96192914D01*
X125190476Y-96192914D02*
X125095238Y-96240533D01*
D11*
%TO.C,R3*%
X104735000Y-98477064D02*
X104735000Y-98022936D01*
X103265000Y-98477064D02*
X103265000Y-98022936D01*
%TO.C,R2*%
X104735000Y-101977064D02*
X104735000Y-101522936D01*
X103265000Y-101977064D02*
X103265000Y-101522936D01*
%TO.C,R1*%
X100272936Y-99265000D02*
X100727064Y-99265000D01*
X100272936Y-100735000D02*
X100727064Y-100735000D01*
%TO.C,J1*%
X126500000Y-98500000D02*
X126500000Y-99300000D01*
X126300000Y-98500000D02*
X126500000Y-98500000D01*
X123500000Y-98700000D02*
X123700000Y-98500000D01*
X123500000Y-99300000D02*
X123500000Y-98700000D01*
X123500000Y-99300000D02*
X123000000Y-99300000D01*
X126500000Y-100700000D02*
X126500000Y-101500000D01*
X123500000Y-100700000D02*
X123000000Y-100700000D01*
X126500000Y-101500000D02*
X126300000Y-101500000D01*
X123700000Y-101500000D02*
X123500000Y-101500000D01*
X123500000Y-101500000D02*
X123500000Y-100700000D01*
%TD*%
%LPC*%
D10*
X62500000Y-69500000D02*
X64500000Y-69500000D01*
X64500000Y-130500000D01*
X62500000Y-130500000D01*
X62500000Y-69500000D01*
G36*
X62500000Y-69500000D02*
G01*
X64500000Y-69500000D01*
X64500000Y-130500000D01*
X62500000Y-130500000D01*
X62500000Y-69500000D01*
G37*
X72000000Y-68500000D02*
X71800000Y-69300000D01*
X71600000Y-69800000D01*
X71200000Y-70400000D01*
X70800000Y-70900000D01*
X70300000Y-71300000D01*
X69900000Y-71500000D01*
X62500000Y-71500000D01*
X62500000Y-69500000D01*
X68500000Y-69500000D01*
X69500000Y-68000000D01*
X69500000Y-62500000D01*
X72000000Y-62500000D01*
X72000000Y-68500000D01*
G36*
X72000000Y-68500000D02*
G01*
X71800000Y-69300000D01*
X71600000Y-69800000D01*
X71200000Y-70400000D01*
X70800000Y-70900000D01*
X70300000Y-71300000D01*
X69900000Y-71500000D01*
X62500000Y-71500000D01*
X62500000Y-69500000D01*
X68500000Y-69500000D01*
X69500000Y-68000000D01*
X69500000Y-62500000D01*
X72000000Y-62500000D01*
X72000000Y-68500000D01*
G37*
X69300000Y-128200000D02*
X69800000Y-128400000D01*
X70400000Y-128800000D01*
X70900000Y-129200000D01*
X71300000Y-129700000D01*
X71500000Y-130100000D01*
X71500000Y-137500000D01*
X69500000Y-137500000D01*
X69500000Y-131500000D01*
X68000000Y-130500000D01*
X62500000Y-130500000D01*
X62500000Y-128000000D01*
X68500000Y-128000000D01*
X69300000Y-128200000D01*
G36*
X69300000Y-128200000D02*
G01*
X69800000Y-128400000D01*
X70400000Y-128800000D01*
X70900000Y-129200000D01*
X71300000Y-129700000D01*
X71500000Y-130100000D01*
X71500000Y-137500000D01*
X69500000Y-137500000D01*
X69500000Y-131500000D01*
X68000000Y-130500000D01*
X62500000Y-130500000D01*
X62500000Y-128000000D01*
X68500000Y-128000000D01*
X69300000Y-128200000D01*
G37*
X69500000Y-62500000D02*
X130500000Y-62500000D01*
X130500000Y-64500000D01*
X69500000Y-64500000D01*
X69500000Y-62500000D01*
G36*
X69500000Y-62500000D02*
G01*
X130500000Y-62500000D01*
X130500000Y-64500000D01*
X69500000Y-64500000D01*
X69500000Y-62500000D01*
G37*
X130500000Y-68500000D02*
X132000000Y-69500000D01*
X137500000Y-69500000D01*
X137500000Y-72000000D01*
X131500000Y-72000000D01*
X130700000Y-71800000D01*
X130200000Y-71600000D01*
X129600000Y-71200000D01*
X129100000Y-70800000D01*
X128700000Y-70300000D01*
X128500000Y-69900000D01*
X128500000Y-62500000D01*
X130500000Y-62500000D01*
X130500000Y-68500000D01*
G36*
X130500000Y-68500000D02*
G01*
X132000000Y-69500000D01*
X137500000Y-69500000D01*
X137500000Y-72000000D01*
X131500000Y-72000000D01*
X130700000Y-71800000D01*
X130200000Y-71600000D01*
X129600000Y-71200000D01*
X129100000Y-70800000D01*
X128700000Y-70300000D01*
X128500000Y-69900000D01*
X128500000Y-62500000D01*
X130500000Y-62500000D01*
X130500000Y-68500000D01*
G37*
X137500000Y-130500000D02*
X135500000Y-130500000D01*
X135500000Y-111000000D01*
X135500000Y-110500000D01*
X135500000Y-103500000D01*
X135500000Y-103000000D01*
X135500000Y-69500000D01*
X137500000Y-69500000D01*
X137500000Y-130500000D01*
G36*
X137500000Y-130500000D02*
G01*
X135500000Y-130500000D01*
X135500000Y-111000000D01*
X135500000Y-110500000D01*
X135500000Y-103500000D01*
X135500000Y-103000000D01*
X135500000Y-69500000D01*
X137500000Y-69500000D01*
X137500000Y-130500000D01*
G37*
X69500000Y-135500000D02*
X130500000Y-135500000D01*
X130500000Y-137500000D01*
X69500000Y-137500000D01*
X69500000Y-135500000D01*
G36*
X69500000Y-135500000D02*
G01*
X130500000Y-135500000D01*
X130500000Y-137500000D01*
X69500000Y-137500000D01*
X69500000Y-135500000D01*
G37*
X137500000Y-130500000D02*
X131500000Y-130500000D01*
X130500000Y-132000000D01*
X130500000Y-137500000D01*
X128000000Y-137500000D01*
X128000000Y-131500000D01*
X128200000Y-130700000D01*
X128400000Y-130200000D01*
X128800000Y-129600000D01*
X129200000Y-129100000D01*
X129700000Y-128700000D01*
X130100000Y-128500000D01*
X137500000Y-128500000D01*
X137500000Y-130500000D01*
G36*
X137500000Y-130500000D02*
G01*
X131500000Y-130500000D01*
X130500000Y-132000000D01*
X130500000Y-137500000D01*
X128000000Y-137500000D01*
X128000000Y-131500000D01*
X128200000Y-130700000D01*
X128400000Y-130200000D01*
X128800000Y-129600000D01*
X129200000Y-129100000D01*
X129700000Y-128700000D01*
X130100000Y-128500000D01*
X137500000Y-128500000D01*
X137500000Y-130500000D01*
G37*
D12*
%TO.C,R3*%
X104000000Y-97287500D03*
X104000000Y-99212500D03*
%TD*%
%TO.C,R2*%
X104000000Y-100787500D03*
X104000000Y-102712500D03*
%TD*%
D13*
%TO.C,R1*%
X99537500Y-100000000D03*
X101462500Y-100000000D03*
%TD*%
D14*
%TO.C,J1*%
X123500000Y-100000000D03*
D15*
X125000000Y-98525000D03*
D14*
X126500000Y-100000000D03*
D15*
X125000000Y-101475000D03*
%TD*%
D16*
%TO.C,ANT1*%
X97500000Y-100000000D03*
D17*
X97500000Y-100000000D03*
%TD*%
D18*
%TO.C,H1*%
X70000000Y-125000000D03*
%TD*%
%TO.C,H2*%
X70000000Y-75000000D03*
%TD*%
%TO.C,H3*%
X130000000Y-75000000D03*
%TD*%
%TO.C,H4*%
X130000000Y-125000000D03*
%TD*%
G36*
X122443039Y-97519685D02*
G01*
X122488794Y-97572489D01*
X122500000Y-97624000D01*
X122500000Y-102376000D01*
X122480315Y-102443039D01*
X122427511Y-102488794D01*
X122376000Y-102500000D01*
X97506188Y-102500000D01*
X97493849Y-102499385D01*
X97011863Y-102451186D01*
X96988571Y-102446571D01*
X96512860Y-102303858D01*
X96488271Y-102293484D01*
X96061518Y-102056399D01*
X96040083Y-102041322D01*
X95659760Y-101708539D01*
X95642215Y-101689620D01*
X95358416Y-101311222D01*
X95344303Y-101287183D01*
X95153528Y-100857938D01*
X95147612Y-100841643D01*
X95052327Y-100508147D01*
X95048802Y-100491617D01*
X95001246Y-100158722D01*
X95000000Y-100141186D01*
X95000000Y-99860263D01*
X95001687Y-99839878D01*
X95049185Y-99554887D01*
X95051200Y-99545198D01*
X95147959Y-99158161D01*
X95153126Y-99142182D01*
X95245887Y-98910281D01*
X95255866Y-98890614D01*
X95495521Y-98507165D01*
X95505414Y-98493502D01*
X95742783Y-98208659D01*
X95758659Y-98192783D01*
X96041614Y-97956987D01*
X96059476Y-97944584D01*
X96391346Y-97754944D01*
X96409328Y-97746501D01*
X96791856Y-97603054D01*
X96808496Y-97598112D01*
X97236712Y-97502953D01*
X97263611Y-97500000D01*
X122376000Y-97500000D01*
X122443039Y-97519685D01*
G37*
%LPD*%
M02*
