M48
; DRILL file {KiCad 8.0.1} date 2024-07-18T17:37:07+0100
; FORMAT={-:-/ absolute / metric / decimal}
; #@! TF.CreationDate,2024-07-18T17:37:07+01:00
; #@! TF.GenerationSoftware,Kicad,Pcbnew,8.0.1
; #@! TF.FileFunction,Plated,1,2,PTH
FMAT,2
METRIC
; #@! TA.AperFunction,Plated,PTH,ViaDrill
T1C0.400
; #@! TA.AperFunction,Plated,PTH,ComponentDrill
T2C1.200
; #@! TA.AperFunction,Plated,PTH,ComponentDrill
T3C2.600
%
G90
G05
T1
X64.0Y-72.0
X64.0Y-75.0
X64.0Y-78.0
X64.0Y-81.0
X64.0Y-84.0
X64.0Y-87.0
X64.0Y-90.0
X64.0Y-93.0
X64.0Y-96.0
X64.0Y-99.0
X64.0Y-102.0
X64.0Y-105.0
X64.0Y-108.0
X64.0Y-111.0
X64.0Y-114.0
X64.0Y-117.0
X64.0Y-120.0
X64.0Y-123.0
X64.0Y-126.0
X64.0Y-129.0
X66.0Y-71.0
X66.0Y-74.0
X66.0Y-78.0
X66.0Y-82.0
X66.0Y-86.0
X66.0Y-90.0
X66.0Y-94.0
X66.0Y-98.0
X66.0Y-102.0
X66.0Y-106.0
X66.0Y-110.0
X66.0Y-114.0
X66.0Y-118.0
X66.0Y-122.0
X66.0Y-126.0
X67.5Y-129.0
X69.0Y-71.0
X70.0Y-80.0
X70.0Y-84.0
X70.0Y-88.0
X70.0Y-92.0
X70.0Y-96.0
X70.0Y-100.0
X70.0Y-104.0
X70.0Y-108.0
X70.0Y-112.0
X70.0Y-116.0
X70.0Y-120.0
X70.75Y-69.5
X71.0Y-66.75
X71.0Y-130.5
X71.0Y-133.5
X72.0Y-64.0
X72.0Y-136.0
X74.0Y-70.0
X74.0Y-74.0
X74.0Y-78.0
X74.0Y-82.0
X74.0Y-86.0
X74.0Y-90.0
X74.0Y-94.0
X74.0Y-98.0
X74.0Y-102.0
X74.0Y-106.0
X74.0Y-110.0
X74.0Y-114.0
X74.0Y-118.0
X74.0Y-122.0
X74.0Y-126.0
X74.0Y-130.0
X74.0Y-134.0
X75.0Y-64.0
X75.0Y-136.0
X78.0Y-64.0
X78.0Y-68.0
X78.0Y-72.0
X78.0Y-76.0
X78.0Y-80.0
X78.0Y-84.0
X78.0Y-88.0
X78.0Y-92.0
X78.0Y-96.0
X78.0Y-100.0
X78.0Y-104.0
X78.0Y-108.0
X78.0Y-112.0
X78.0Y-116.0
X78.0Y-120.0
X78.0Y-124.0
X78.0Y-128.0
X78.0Y-132.0
X78.0Y-136.0
X81.0Y-64.0
X81.0Y-136.0
X82.0Y-66.0
X82.0Y-70.0
X82.0Y-74.0
X82.0Y-78.0
X82.0Y-82.0
X82.0Y-86.0
X82.0Y-90.0
X82.0Y-94.0
X82.0Y-98.0
X82.0Y-102.0
X82.0Y-106.0
X82.0Y-110.0
X82.0Y-114.0
X82.0Y-118.0
X82.0Y-122.0
X82.0Y-126.0
X82.0Y-130.0
X82.0Y-134.0
X84.0Y-64.0
X84.0Y-136.0
X86.0Y-68.0
X86.0Y-72.0
X86.0Y-76.0
X86.0Y-80.0
X86.0Y-84.0
X86.0Y-88.0
X86.0Y-92.0
X86.0Y-96.0
X86.0Y-100.0
X86.0Y-104.0
X86.0Y-108.0
X86.0Y-112.0
X86.0Y-116.0
X86.0Y-120.0
X86.0Y-124.0
X86.0Y-128.0
X86.0Y-132.0
X87.0Y-64.0
X87.0Y-136.0
X90.0Y-64.0
X90.0Y-66.0
X90.0Y-70.0
X90.0Y-74.0
X90.0Y-78.0
X90.0Y-82.0
X90.0Y-86.0
X90.0Y-90.0
X90.0Y-94.0
X90.0Y-98.0
X90.0Y-102.0
X90.0Y-106.0
X90.0Y-110.0
X90.0Y-114.0
X90.0Y-118.0
X90.0Y-122.0
X90.0Y-126.0
X90.0Y-130.0
X90.0Y-134.0
X90.0Y-136.0
X93.0Y-64.0
X93.0Y-136.0
X94.0Y-68.0
X94.0Y-72.0
X94.0Y-76.0
X94.0Y-80.0
X94.0Y-84.0
X94.0Y-88.0
X94.0Y-92.0
X94.0Y-96.0
X94.0Y-104.0
X94.0Y-108.0
X94.0Y-112.0
X94.0Y-116.0
X94.0Y-120.0
X94.0Y-124.0
X94.0Y-128.0
X94.0Y-132.0
X94.5Y-100.0
X95.25Y-98.0
X95.25Y-102.0
X96.0Y-64.0
X96.0Y-136.0
X97.2Y-103.0
X97.3Y-97.0
X98.0Y-66.0
X98.0Y-70.0
X98.0Y-74.0
X98.0Y-78.0
X98.0Y-82.0
X98.0Y-86.0
X98.0Y-90.0
X98.0Y-94.0
X98.0Y-106.0
X98.0Y-110.0
X98.0Y-114.0
X98.0Y-118.0
X98.0Y-122.0
X98.0Y-126.0
X98.0Y-130.0
X98.0Y-134.0
X98.7Y-103.5
X98.8Y-96.7
X99.0Y-64.0
X99.0Y-136.0
X100.1Y-103.6
X100.25Y-96.7
X101.8Y-103.5
X102.0Y-64.0
X102.0Y-68.0
X102.0Y-72.0
X102.0Y-76.0
X102.0Y-80.0
X102.0Y-84.0
X102.0Y-88.0
X102.0Y-92.0
X102.0Y-96.5
X102.0Y-108.0
X102.0Y-112.0
X102.0Y-116.0
X102.0Y-120.0
X102.0Y-124.0
X102.0Y-128.0
X102.0Y-132.0
X102.0Y-136.0
X103.75Y-104.0
X104.0Y-96.0
X105.0Y-64.0
X105.0Y-136.0
X105.5Y-97.0
X105.5Y-103.0
X106.0Y-66.0
X106.0Y-70.0
X106.0Y-74.0
X106.0Y-78.0
X106.0Y-82.0
X106.0Y-86.0
X106.0Y-90.0
X106.0Y-94.0
X106.0Y-106.0
X106.0Y-110.0
X106.0Y-114.0
X106.0Y-118.0
X106.0Y-122.0
X106.0Y-126.0
X106.0Y-130.0
X106.0Y-134.0
X107.5Y-97.0
X107.5Y-103.0
X108.0Y-64.0
X108.0Y-136.0
X109.5Y-97.0
X109.5Y-103.0
X110.0Y-68.0
X110.0Y-72.0
X110.0Y-76.0
X110.0Y-80.0
X110.0Y-84.0
X110.0Y-88.0
X110.0Y-92.0
X110.0Y-95.0
X110.0Y-105.0
X110.0Y-108.0
X110.0Y-112.0
X110.0Y-116.0
X110.0Y-120.0
X110.0Y-124.0
X110.0Y-128.0
X110.0Y-132.0
X111.0Y-64.0
X111.0Y-136.0
X111.25Y-97.0
X111.5Y-103.0
X113.5Y-97.0
X113.5Y-103.0
X114.0Y-64.0
X114.0Y-66.0
X114.0Y-70.0
X114.0Y-74.0
X114.0Y-78.0
X114.0Y-82.0
X114.0Y-86.0
X114.0Y-90.0
X114.0Y-94.0
X114.0Y-106.0
X114.0Y-110.0
X114.0Y-114.0
X114.0Y-118.0
X114.0Y-122.0
X114.0Y-126.0
X114.0Y-130.0
X114.0Y-134.0
X114.0Y-136.0
X115.5Y-97.0
X115.5Y-103.0
X117.0Y-64.0
X117.0Y-136.0
X117.5Y-97.0
X117.5Y-103.0
X118.0Y-68.0
X118.0Y-72.0
X118.0Y-76.0
X118.0Y-80.0
X118.0Y-84.0
X118.0Y-88.0
X118.0Y-92.0
X118.0Y-95.0
X118.0Y-105.0
X118.0Y-108.0
X118.0Y-112.0
X118.0Y-116.0
X118.0Y-120.0
X118.0Y-124.0
X118.0Y-128.0
X118.0Y-132.0
X119.5Y-97.0
X119.5Y-103.0
X120.0Y-64.0
X120.0Y-136.0
X121.5Y-97.0
X121.5Y-103.0
X122.0Y-66.0
X122.0Y-70.0
X122.0Y-74.0
X122.0Y-78.0
X122.0Y-82.0
X122.0Y-86.0
X122.0Y-90.0
X122.0Y-94.0
X122.0Y-106.0
X122.0Y-110.0
X122.0Y-114.0
X122.0Y-118.0
X122.0Y-122.0
X122.0Y-126.0
X122.0Y-130.0
X122.0Y-134.0
X123.0Y-64.0
X123.0Y-136.0
X123.5Y-97.0
X123.5Y-103.0
X126.0Y-64.0
X126.0Y-68.0
X126.0Y-72.0
X126.0Y-76.0
X126.0Y-80.0
X126.0Y-84.0
X126.0Y-88.0
X126.0Y-92.0
X126.0Y-104.0
X126.0Y-108.0
X126.0Y-112.0
X126.0Y-116.0
X126.0Y-120.0
X126.0Y-124.0
X126.0Y-128.0
X126.0Y-132.0
X126.0Y-136.0
X129.0Y-64.0
X129.0Y-67.5
X129.0Y-130.5
X129.0Y-133.5
X129.0Y-136.0
X129.75Y-69.75
X130.0Y-82.0
X130.0Y-86.0
X130.0Y-90.0
X130.0Y-94.0
X130.0Y-98.0
X130.0Y-102.0
X130.0Y-106.0
X130.0Y-110.0
X130.0Y-114.0
X130.0Y-118.0
X132.0Y-71.0
X132.0Y-129.0
X134.0Y-74.0
X134.0Y-77.0
X134.0Y-80.0
X134.0Y-84.0
X134.0Y-88.0
X134.0Y-92.0
X134.0Y-96.0
X134.0Y-100.0
X134.0Y-104.0
X134.0Y-108.0
X134.0Y-112.0
X134.0Y-116.0
X134.0Y-120.0
X134.0Y-124.0
X134.0Y-128.0
X135.0Y-71.0
X136.0Y-72.0
X136.0Y-75.0
X136.0Y-78.0
X136.0Y-81.0
X136.0Y-84.0
X136.0Y-87.0
X136.0Y-90.0
X136.0Y-93.0
X136.0Y-96.0
X136.0Y-99.0
X136.0Y-102.0
X136.0Y-105.0
X136.0Y-108.0
X136.0Y-111.0
X136.0Y-114.0
X136.0Y-117.0
X136.0Y-120.0
X136.0Y-123.0
X136.0Y-126.0
X136.0Y-129.0
T2
X97.5Y-100.0
T3
X70.0Y-75.0
X70.0Y-125.0
X130.0Y-75.0
X130.0Y-125.0
M30
