%TF.GenerationSoftware,KiCad,Pcbnew,8.0.1*%
%TF.CreationDate,2024-07-18T17:37:09+01:00*%
%TF.ProjectId,patch-antenna-board,70617463-682d-4616-9e74-656e6e612d62,rev?*%
%TF.SameCoordinates,Original*%
%TF.FileFunction,Drillmap*%
%TF.FilePolarity,Positive*%
%FSLAX45Y45*%
G04 Gerber Fmt 4.5, Leading zero omitted, Abs format (unit mm)*
G04 Created by KiCad (PCBNEW 8.0.1) date 2024-07-18 17:37:09*
%MOMM*%
%LPD*%
G01*
G04 APERTURE LIST*
%ADD10C,0.050000*%
%ADD11C,0.200000*%
G04 APERTURE END LIST*
D10*
X13007000Y-13207000D02*
G75*
G02*
X13207000Y-13007000I194160J5840D01*
G01*
X6993000Y-6793000D02*
X6993000Y-6298000D01*
X13702000Y-6993000D02*
X13702000Y-13007000D01*
X6993000Y-13702000D02*
X13007000Y-13702000D01*
X6298000Y-6993000D02*
X6793000Y-6993000D01*
X13702000Y-13007000D02*
X13207000Y-13007000D01*
X6298000Y-6993000D02*
X6298000Y-13007000D01*
X6993000Y-13702000D02*
X6993000Y-13207000D01*
X13007000Y-6298000D02*
X13007000Y-6793000D01*
X13207000Y-6993000D02*
X13702000Y-6993000D01*
X13207000Y-6993000D02*
G75*
G02*
X13007000Y-6793000I-5840J194160D01*
G01*
X6793000Y-13007000D02*
X6298000Y-13007000D01*
X6993000Y-6298000D02*
X13007000Y-6298000D01*
X6993000Y-6793000D02*
G75*
G02*
X6793000Y-6993000I-194160J-5840D01*
G01*
X6793000Y-13007000D02*
G75*
G02*
X6993000Y-13207000I5840J-194160D01*
G01*
X13007000Y-13207000D02*
X13007000Y-13702000D01*
D11*
X6556277Y-14015984D02*
X6556277Y-13815984D01*
X6556277Y-13815984D02*
X6603896Y-13815984D01*
X6603896Y-13815984D02*
X6632467Y-13825508D01*
X6632467Y-13825508D02*
X6651515Y-13844555D01*
X6651515Y-13844555D02*
X6661039Y-13863603D01*
X6661039Y-13863603D02*
X6670562Y-13901698D01*
X6670562Y-13901698D02*
X6670562Y-13930269D01*
X6670562Y-13930269D02*
X6661039Y-13968365D01*
X6661039Y-13968365D02*
X6651515Y-13987412D01*
X6651515Y-13987412D02*
X6632467Y-14006460D01*
X6632467Y-14006460D02*
X6603896Y-14015984D01*
X6603896Y-14015984D02*
X6556277Y-14015984D01*
X6756277Y-14015984D02*
X6756277Y-13882650D01*
X6756277Y-13920746D02*
X6765801Y-13901698D01*
X6765801Y-13901698D02*
X6775324Y-13892174D01*
X6775324Y-13892174D02*
X6794372Y-13882650D01*
X6794372Y-13882650D02*
X6813420Y-13882650D01*
X6880086Y-14015984D02*
X6880086Y-13882650D01*
X6880086Y-13815984D02*
X6870562Y-13825508D01*
X6870562Y-13825508D02*
X6880086Y-13835031D01*
X6880086Y-13835031D02*
X6889610Y-13825508D01*
X6889610Y-13825508D02*
X6880086Y-13815984D01*
X6880086Y-13815984D02*
X6880086Y-13835031D01*
X7003896Y-14015984D02*
X6984848Y-14006460D01*
X6984848Y-14006460D02*
X6975324Y-13987412D01*
X6975324Y-13987412D02*
X6975324Y-13815984D01*
X7108658Y-14015984D02*
X7089610Y-14006460D01*
X7089610Y-14006460D02*
X7080086Y-13987412D01*
X7080086Y-13987412D02*
X7080086Y-13815984D01*
X7337229Y-14015984D02*
X7337229Y-13815984D01*
X7337229Y-13815984D02*
X7403896Y-13958841D01*
X7403896Y-13958841D02*
X7470562Y-13815984D01*
X7470562Y-13815984D02*
X7470562Y-14015984D01*
X7651515Y-14015984D02*
X7651515Y-13911222D01*
X7651515Y-13911222D02*
X7641991Y-13892174D01*
X7641991Y-13892174D02*
X7622943Y-13882650D01*
X7622943Y-13882650D02*
X7584848Y-13882650D01*
X7584848Y-13882650D02*
X7565801Y-13892174D01*
X7651515Y-14006460D02*
X7632467Y-14015984D01*
X7632467Y-14015984D02*
X7584848Y-14015984D01*
X7584848Y-14015984D02*
X7565801Y-14006460D01*
X7565801Y-14006460D02*
X7556277Y-13987412D01*
X7556277Y-13987412D02*
X7556277Y-13968365D01*
X7556277Y-13968365D02*
X7565801Y-13949317D01*
X7565801Y-13949317D02*
X7584848Y-13939793D01*
X7584848Y-13939793D02*
X7632467Y-13939793D01*
X7632467Y-13939793D02*
X7651515Y-13930269D01*
X7746753Y-13882650D02*
X7746753Y-14082650D01*
X7746753Y-13892174D02*
X7765801Y-13882650D01*
X7765801Y-13882650D02*
X7803896Y-13882650D01*
X7803896Y-13882650D02*
X7822943Y-13892174D01*
X7822943Y-13892174D02*
X7832467Y-13901698D01*
X7832467Y-13901698D02*
X7841991Y-13920746D01*
X7841991Y-13920746D02*
X7841991Y-13977888D01*
X7841991Y-13977888D02*
X7832467Y-13996936D01*
X7832467Y-13996936D02*
X7822943Y-14006460D01*
X7822943Y-14006460D02*
X7803896Y-14015984D01*
X7803896Y-14015984D02*
X7765801Y-14015984D01*
X7765801Y-14015984D02*
X7746753Y-14006460D01*
X7927705Y-13996936D02*
X7937229Y-14006460D01*
X7937229Y-14006460D02*
X7927705Y-14015984D01*
X7927705Y-14015984D02*
X7918182Y-14006460D01*
X7918182Y-14006460D02*
X7927705Y-13996936D01*
X7927705Y-13996936D02*
X7927705Y-14015984D01*
X7927705Y-13892174D02*
X7937229Y-13901698D01*
X7937229Y-13901698D02*
X7927705Y-13911222D01*
X7927705Y-13911222D02*
X7918182Y-13901698D01*
X7918182Y-13901698D02*
X7927705Y-13892174D01*
X7927705Y-13892174D02*
X7927705Y-13911222D01*
M02*
